<?xml version="1.0" encoding="utf-8"?>
<!-- Generator: Adobe Illustrator 26.0.1, SVG Export Plug-In . SVG Version: 6.00 Build 0)  -->
<svg version="1.1" id="Layer_1" xmlns="http://www.w3.org/2000/svg" xmlns:xlink="http://www.w3.org/1999/xlink" x="0px" y="0px"
	 viewBox="0 0 1142.7 866.8" style="enable-background:new 0 0 1142.7 866.8;" xml:space="preserve">
<style type="text/css">
	.st0{opacity:0.1;fill:#6C63FF;enable-background:new    ;}
	.st1{opacity:0.3;fill:#6C63FF;enable-background:new    ;}
	.st2{opacity:0.4;fill:#FFFFFF;enable-background:new    ;}
	.st3{fill:url(#SVGID_1_);}
	.st4{fill:#ECB4B6;}
	.st5{opacity:0.1;enable-background:new    ;}
	.st6{fill:#6C63FF;}
	.st7{opacity:0.25;fill:#FFFFFF;enable-background:new    ;}
	.st8{fill:#FF748E;}
	.st9{fill:#5E5A6B;}
	.st10{fill:#464353;}
	.st11{opacity:0.1;}
	.st12{fill:#9F9EFF;}
	.st13{fill:url(#SVGID_00000100345878946032031950000015531678903145285310_);}
	.st14{fill:url(#SVGID_00000128487554347095287130000008163879282664818367_);}
	.st15{fill:url(#SVGID_00000147919319164901964140000000076132005458294462_);}
	.st16{fill:url(#SVGID_00000126283531663586274380000004051752444063158942_);}
	.st17{fill:#333333;}
	.st18{fill:#535461;}
	.st19{opacity:3.000000e-02;enable-background:new    ;}
	.st20{fill:#F2F2F2;}
	.st21{opacity:5.000000e-02;enable-background:new    ;}
	.st22{fill:#CBDAE3;}
	.st23{fill:#74A67E;}
	.st24{fill:#FFD037;}
	.st25{fill:#A8A8A8;}
	.st26{opacity:0.2;enable-background:new    ;}
	.st27{fill:none;stroke:#535461;stroke-width:2;stroke-miterlimit:10;}
</style>
<ellipse class="st0" cx="566.3" cy="835.3" rx="434.8" ry="31.4"/>
<path class="st0" d="M990.1,374.6c-1.9,2.9-3.8,6-5.6,9c-17,28.7-27.5,61.7-14.9,91.6c16.8,40.1,66.8,59.6,108.9,84.8
	c20.3,12.2,38.9,25.6,50.9,43.4c0.4,0.6,0.9,1.3,1.3,1.9c16.9,26.2,15.7,59.7-1.3,85.7c-4.7,7.3-10.5,13.8-17.2,19.4
	c-1.8,1.5-3.8,3-5.7,4.4c-24.8,17.8-58.1,25.7-90.4,30.8c-62.7,9.9-126.8,11.8-190.5,13.7c-53.7,1.6-107.4,3.2-161.1,4.3
	c-76.8,1.5-153.5,2-230.2,0c-41.9-1.1-83.8-3-125.6-5.8c-77.6-5.3-157.2-14.7-224.8-47.5c-12.4-5.9-24.2-12.9-35.3-20.9
	C30.1,675.9,15,659.7,6.9,640.6c-13-30.8-6.1-65.4,8.7-95.6c9-18.3,20.7-35.4,32.8-52.3c7.2-10.1,14.5-20.1,21.5-30.2
	c0.7-1,1.4-2.1,2.1-3.1c1.3-2,2.7-4,4-6c5.5-8.4,10.7-17.1,15.4-26c4.7-8.8,9-17.9,12.9-27.2c3.5-8.5,6.5-17.2,9-26
	c1.7-6,3.1-11.9,4.1-17.9c5.9-32.5,2.8-65-14.7-94.4c-0.2-0.3-0.4-0.6-0.5-0.9l-0.2-0.3c-4.9-8.1-10.9-15.8-16.8-23.4
	c-7-9.2-13.9-18.5-18.7-28.6c-12.8-26.8-10-56.9-5.4-85.5c6.2-38,17.7-79,53.4-102.7C151.6-4.3,204.2-3,250.2,5.8
	C321.7,19.5,387.7,48.2,454.3,74s-49.8,74.6,23.4,77.1c64.7,2.2,171.3,71,214.2,27.3c41.7-42.4,244.4-133.8,372,60.3"/>
<path class="st1" d="M76.1,453.3c5.5-8.4,10.7-17.1,15.4-26c4.7-8.8,9-17.9,12.9-27.2c3.5-8.5,6.5-17.2,9-26
	c1.7-6,3.1-11.9,4.1-17.9c5.9-32.5,2.8-65-14.7-94.4c-0.2-0.3-0.4-0.6-0.5-0.9l-17-23.8h126.2v83.8h35.1v251.3h45.3v-81.5h54.3v81.5
	h45.2V432.9h2.3v-72.4h43v72.4h99.6v108.7h55.5v-34h34v34h55.5V220.1h72.4v-50.9H766v50.9h20.4v100.7h36.2v-83.8h30.6v-86h63.4v86
	h30.6v83.8h37.3v62.7c-17,28.7-27.5,61.7-14.9,91.6c16.8,40.1,66.8,59.6,108.9,84.8c20.3,12.2,38.9,25.6,50.9,43.4V691
	c-4.7,7.3-10.6,13.8-17.2,19.3c-1.8,1.5-3.8,3-5.7,4.4c-24.8,17.8-58.1,25.7-90.4,30.8c-62.7,9.9-126.8,11.8-190.5,13.7
	c-53.7,1.6-107.4,3.2-161.1,4.3H434.1c-41.9-1.1-83.8-3-125.6-5.8c-77.6-5.3-157.2-14.7-224.8-47.5c-12.4-5.9-24.2-12.9-35.3-20.9
	V492.7c7.2-10.1,14.5-20.1,21.5-30.2L76.1,453.3z"/>
<path class="st2" d="M117.5,356.2v17.9h-4.1C115,368.1,116.4,362.2,117.5,356.2z"/>
<rect x="176.3" y="346.9" class="st2" width="47.5" height="27.2"/>
<path class="st2" d="M117.5,400.1v27.2h-26c4.8-8.8,9.1-17.9,12.9-27.2H117.5z"/>
<rect x="176.3" y="400.1" class="st2" width="47.5" height="27.2"/>
<polygon class="st2" points="76.1,453.3 117.5,453.3 117.5,480.5 69.9,480.5 69.9,462.4 "/>
<rect x="176.3" y="453.3" class="st2" width="47.5" height="27.2"/>
<rect x="69.9" y="506.5" class="st2" width="47.5" height="27.2"/>
<rect x="176.3" y="506.5" class="st2" width="47.5" height="27.2"/>
<rect x="69.9" y="559.7" class="st2" width="47.5" height="27.2"/>
<rect x="176.3" y="559.7" class="st2" width="47.5" height="27.2"/>
<rect x="69.9" y="612.9" class="st2" width="47.5" height="27.2"/>
<rect x="176.3" y="612.9" class="st2" width="47.5" height="27.2"/>
<rect x="69.9" y="666.1" class="st2" width="47.5" height="27.2"/>
<rect x="176.3" y="666.1" class="st2" width="47.5" height="27.2"/>
<rect x="263.5" y="599.3" class="st2" width="110.9" height="13.6"/>
<rect x="263.5" y="619.7" class="st2" width="110.9" height="13.6"/>
<rect x="263.5" y="640.1" class="st2" width="110.9" height="13.6"/>
<rect x="553.2" y="606.1" class="st2" width="110.9" height="13.6"/>
<rect x="553.2" y="626.5" class="st2" width="110.9" height="13.6"/>
<rect x="553.2" y="646.9" class="st2" width="110.9" height="13.6"/>
<rect x="263.5" y="660.5" class="st2" width="110.9" height="13.6"/>
<rect x="263.5" y="680.8" class="st2" width="110.9" height="13.6"/>
<rect x="263.5" y="701.2" class="st2" width="110.9" height="13.6"/>
<rect x="415.1" y="459" class="st2" width="30.6" height="39.6"/>
<rect x="481.9" y="459" class="st2" width="30.6" height="39.6"/>
<rect x="415.1" y="522.3" class="st2" width="30.6" height="39.6"/>
<rect x="481.9" y="522.3" class="st2" width="30.6" height="39.6"/>
<rect x="415.1" y="585.7" class="st2" width="30.6" height="39.6"/>
<rect x="481.9" y="585.7" class="st2" width="30.6" height="39.6"/>
<rect x="415.1" y="649.1" class="st2" width="30.6" height="39.6"/>
<rect x="481.9" y="649.1" class="st2" width="30.6" height="39.6"/>
<rect x="681.2" y="246.2" class="st2" width="40.8" height="52.1"/>
<rect x="681.2" y="320.9" class="st2" width="40.8" height="52.1"/>
<rect x="681.2" y="395.6" class="st2" width="40.8" height="52.1"/>
<rect x="681.2" y="470.3" class="st2" width="40.8" height="52.1"/>
<rect x="681.2" y="545" class="st2" width="40.8" height="52.1"/>
<rect x="681.2" y="619.7" class="st2" width="40.8" height="52.1"/>
<rect x="809.6" y="352.6" class="st2" width="151.7" height="44.1"/>
<rect x="810.2" y="447.6" class="st2" width="151.7" height="44.1"/>
<rect x="810.8" y="542.7" class="st2" width="151.7" height="44.1"/>
<rect x="811.3" y="637.8" class="st2" width="151.7" height="44.1"/>
<path class="st2" d="M102.8,260.9v0.9c-0.2-0.3-0.4-0.6-0.5-0.9H102.8z"/>
<path class="st2" d="M1129.4,603.4v16.3h-50.9V560C1098.8,572.2,1117.4,585.6,1129.4,603.4z"/>
<path class="st2" d="M1129.4,649.1V691c-4.7,7.3-10.5,13.8-17.2,19.4c-1.8,1.5-3.8,3-5.7,4.4h-28v-65.6H1129.4z"/>
<path class="st0" d="M348,205.1h-7.8c3,0,5.4-2.4,5.4-5.5c0-3-2.4-5.4-5.4-5.4h-63.1c-3,0-5.4,2.4-5.4,5.5c0,3,2.4,5.4,5.4,5.4h7.8
	c-3,0.1-5.4,2.7-5.2,5.7c0.1,2.8,2.4,5.1,5.2,5.2H274c-3,0-5.5,2.4-5.5,5.4s2.4,5.5,5.4,5.5c0,0,0,0,0,0h63.1c3,0,5.4-2.4,5.4-5.5
	c0-3-2.4-5.4-5.4-5.4H348c3-0.1,5.4-2.7,5.2-5.7C353.1,207.4,350.9,205.2,348,205.1z"/>
<path class="st0" d="M626.5,342h-7.8c3,0,5.4-2.4,5.4-5.5c0-3-2.4-5.4-5.4-5.4h-63.1c-3,0-5.4,2.4-5.4,5.5c0,3,2.4,5.4,5.4,5.4h7.8
	c-3,0.1-5.4,2.7-5.2,5.7c0.1,2.8,2.4,5.1,5.2,5.2h-10.9c-3,0-5.5,2.4-5.5,5.4c0,3,2.4,5.5,5.4,5.5c0,0,0,0,0,0h63.1
	c3,0,5.4-2.4,5.4-5.5c0-3-2.4-5.4-5.4-5.4h10.9c3-0.1,5.4-2.7,5.2-5.7C631.6,344.4,629.3,342.1,626.5,342z"/>
<path class="st0" d="M192.8,88.8H185c3,0,5.5-2.4,5.5-5.4s-2.4-5.5-5.4-5.5c0,0,0,0,0,0h-63.1c-3,0-5.4,2.4-5.4,5.5
	c0,3,2.4,5.4,5.4,5.4h7.8c-3,0-5.4,2.4-5.4,5.5c0,3,2.4,5.4,5.4,5.4h-10.9c-3,0.1-5.4,2.7-5.2,5.7c0.1,2.8,2.4,5.1,5.2,5.2h63.1
	c3,0.1,5.6-2.2,5.7-5.2s-2.2-5.6-5.2-5.7c-0.2,0-0.3,0-0.5,0h10.9c3,0,5.4-2.4,5.4-5.5C198.3,91.3,195.8,88.8,192.8,88.8z"/>
<linearGradient id="SVGID_1_" gradientUnits="userSpaceOnUse" x1="919.5217" y1="-0.837" x2="919.5217" y2="520.9344" gradientTransform="matrix(1 0 0 -1 -28.64 849.39)">
	<stop  offset="0" style="stop-color:#808080;stop-opacity:0.25"/>
	<stop  offset="0.54" style="stop-color:#808080;stop-opacity:0.12"/>
	<stop  offset="1" style="stop-color:#808080;stop-opacity:0.1"/>
</linearGradient>
<path class="st3" d="M1010.2,431.7L1010.2,431.7l-0.2-0.2l-0.5-0.3c0,0,0.1,0,0.1,0.1c-0.9-0.5-2-0.3-2.6,0.6l-0.3,0.4l0,0l-14,20.1
	l-2.5,3.5c-7.4-2.2-19.3,7.1-25.4,12.5l-1.1,1c-0.5-1.1-0.8-1.8-0.8-1.8c-0.3,3.3-11.9,8.2-14.6,10c-1.2,0.7-2.6,1.2-4,1.4
	c0.4-12.5-9.3-25.7-9.3-25.7L911.5,423c-0.9-5.4,0-11,2.4-16c0.2-0.4,0.4-0.8,0.6-1.2c0.3,0,0.7,0,1,0h0.1c1.9,0,3.9-0.2,5.8-0.5
	c14.3-2.5,25-14.5,25.9-29c2.4-0.6,4.4-2.8,4.1-5.4c0.1-0.5,0.1-1,0-1.5l0,0c-0.1-0.3-0.2-0.6-0.3-0.9l0,0c-0.7-1.7-2.1-3.1-3.2-4.6
	c-1.5-2.3-2.2-4.9-2.2-7.7c0.1-2.4,0.5-4.7,1.1-7c0.5-1.4,0.7-2.8,0.7-4.2v-0.3c0-0.4,0-0.8,0-1.1c0-0.3-0.1-0.5-0.2-0.8l0,0
	c-0.6-1.6-1.7-3-3.2-3.9c-3.7-2.4-8.5-2.5-12.7-4c-6.1-2.2-11.6-7.7-18-6.4c-3.5,0.7-6.2,3.4-9.2,5.3c-3.3,2.1-7.1,3.2-11,3.4
	c-3.3,0.1-6.6-0.5-9.9,0c-0.6,0.1-1.2,0.3-1.7,0.5c-2.8-0.9-5.7-1.4-8.6-1.4c-2.9-0.1-5.7,0.7-8.1,2.2c-4.4,3-5.5,9-5.5,14.3
	c0,0,0,0.1,0,0.1c0,0.4,0,0.7,0,1c0,2.5,0.2,5.1,0.3,7.7c0,2.4-0.3,4.7-1,7c-2,6.3-7.8,11.1-9,17.6c-0.2,1.1-0.3,2.3-0.2,3.4
	c-0.1,3.7,1.1,7.4,2.2,10.9c2.3,7.4,4,15.2,4.1,22.9c0,4.8-1,9.5-2.8,13.9c-0.5,1.3-1.2,2.5-2,3.7c-0.3,0.4-0.5,0.7-0.8,1.1
	l-0.1,0.1c-0.2,0.3-0.5,0.6-0.8,0.8l-0.2,0.2c-0.3,0.2-0.5,0.4-0.8,0.6l-0.3,0.2c-0.4,0.3-0.8,0.5-1.2,0.7l2-0.1
	c-0.6,0.5-1.3,0.9-2,1.3l10.6-0.6c0,0.1,0,0.2,0,0.3c0,0.3-0.1,0.5-0.2,0.8c-0.1,0.2-0.2,0.5-0.3,0.7c0,0,0,0.1,0,0.1
	c-0.2,0.5-0.5,0.9-0.8,1.3l-0.1,0.1c-0.2,0.2-0.3,0.4-0.5,0.6l0,0c-0.2,0.2-0.4,0.3-0.6,0.5l-0.1,0.1c-0.2,0.1-0.4,0.3-0.7,0.4l0,0
	c-0.2,0.1-0.4,0.2-0.7,0.3l-0.2,0c-0.2,0.1-0.5,0.1-0.7,0.1l1-0.1c0.7-0.1,1.3-0.2,2-0.3h0.2c-0.9,0.9-2,1.4-3.2,1.6
	c2.3-0.2,4.5-0.6,6.7-1.3c1.4,9.3,4.5,37.6,2.8,42.8c-1.8,5.6,2.8,46.4,2.8,46.4s0.6,3.1,1.7,7.8c-2.8,6.7-6.1,14.1-7.7,17.1
	c-3.3,6-1.7,36.5,9.6,50c0,0,4.7,6.6,3.4,9s0.2,6.6,0.2,6.6l1.8,39.4c0,4-0.3,8.1-0.8,12c-4.8,6-12.2,14.6-15.7,16
	c-5.4,2.2-45.6,51-45.6,51s0.3,0.6,1,1.5l-1.1,1.3l-7.7,8.9l-0.6,0.7c-1.5-0.3-11.1-2-18.7-2.6l-0.8,0v-0.1
	c-2.7-0.3-5.4-0.2-8.1,0.2h-0.1l0,0c-0.5,0.1-1,0.3-1.3,0.7c-2.6,3.2-4,53.4-4,53.4s2.8,25.1,11.4,26.5c0.5,0.2,0.9,0.2,1.4,0.3h0
	c0.2,0,0.3,0,0.5,0c6.2-0.5,9-4,10.3-6.5c0.4-0.7,0.7-1.5,0.9-2.3c0,0-1-4.5,1.7-10.7s7.7-16.9,7.7-16.9s9.2-9.7,7.5-14.4l0.9-1.3
	c3.5-4.9,10.4-14.6,16.1-21.1l1.1-1.2c2.1,0.9,4.2,1.5,6.4,1.9c0,0,8.6-3.4,11.9-11c1.4-3.2,6.7-8.9,12.4-14.4
	c-0.1,0.9-0.2,1.5-0.2,1.5l-0.2,48c1.9,1.3,3.8,2.4,5.9,3.2c0,0.4,0,0.8,0,1.2c0,6.8-0.4,13.7-1.2,20.5l-0.2,1.1
	c-0.7-0.5-1.3-0.7-1.7-0.3c-1.8,1.8-2.9,13.2-3,18.5c0,0.1,0,0.2,0,0.3l0,0c-0.1,2.2-0.7,4.8-0.7,7.1c-0.1,3.4,1,6.2,6.5,6.5
	c6.8,0.3,35.9,0.7,51.5,1c8.4,0.2,16.6-2.7,23-8.2c2.9-2.5,5-5.2,5.1-7.7c0.1-2-0.9-3.9-3.9-5.5c0,0.1,0,0.1-0.1,0.2
	c-0.4-0.2-0.8-0.4-1.3-0.6l-15-2.3l-25.5-13c0,0-0.2-7.9-3.2-6.6c-0.9,0.2-1.8,0.5-2.6,1c-0.2-0.3-0.3-0.6-0.5-0.9
	c-2.1-4.1-3.2-8.7-3.2-13.3c0-0.4,0-0.8,0.1-1.3c0.8-0.7,1.5-1.4,2.1-2.2c0,0-0.2-17.9,1.8-21.3s8.2-37.7,8.2-37.7s0.2-6.4,4.2-10.2
	s2.6-14.7,2.6-14.7s5.6-3,7.4-12.8s7.6-31.1,7.6-31.1s12.1-31.5,11.3-51.4s1.2-30.3,1.2-30.3l2.5-46.3v-0.7c1,0.8,1.7,1.4,1.7,1.4
	s0-0.2,0-0.5l0.6,0.5c0,0,1.3-21,0.8-29.3c7-2.4,17.7-6.3,18.3-8.3c0.9-3,13-12.4,13-12.4c-0.3,0-0.5-0.1-0.7-0.3
	c0.4-0.2,0.8-0.4,1.2-0.6c7.9-4.2,22.6-16.6,20.1-24.2l16.1-23.1C1011.6,435.1,1011.4,433,1010.2,431.7z M879.4,409.2
	c-0.4,0-0.8,0-1.2,0.1c-0.7-4.1-1.7-8.2-3-12.2c-1.9-6.3-3.9-12.6-4.2-19.1c0-0.3,0-0.6,0-0.8c0-1.7,0.3-3.4,0.7-5.1
	c0.4,0.7,0.8,1.4,1.2,2.1c2.6,3.9,5.6,7.6,7.2,11.9c0.7,2,1.1,4.2,2.2,6c1.1,1.8,3.1,3.4,5.3,3c0.7-0.1,1.4-0.4,2-0.9
	C886.7,399.6,883.3,404.6,879.4,409.2z"/>
<path class="st4" d="M971.5,488.9c-1.2,0.7-2.4,1.2-3.8,1.4c-5,0.1-9-13.2-9-13.2s1.4-1.4,3.7-3.4c6.6-5.9,20.5-16.8,27.1-10.7
	C996.8,469.8,980,484.3,971.5,488.9z"/>
<path class="st4" d="M896.4,808.2L878.1,828c0,0-16.9,0.2-13.6-9.1c0.7-2,1.1-4.1,1.4-6.2c0.8-6.6,1.2-13.3,1.2-20
	c0-4.4-0.1-7.4-0.1-7.4s26.6-11.7,23.9,0.5c-0.4,1.5-0.5,3.1-0.6,4.7c0,4.5,1,8.9,3,13C894.2,805.1,895.2,806.7,896.4,808.2z"/>
<path class="st5" d="M896.4,808.2L878.1,828c0,0-16.9,0.2-13.6-9.1c0.7-2,1.1-4.1,1.4-6.2c2.4,1.9,5.9,7.4,5.9,7.4
	s11.6,3.4,14.8-6.8c1.8-5.7,4.6-8.5,6.8-9.9C894.2,805,895.2,806.7,896.4,808.2z"/>
<path class="st6" d="M938.7,837.9c-6.2,5.3-14.1,8.1-22.2,8c-15-0.2-43.2-0.7-49.7-0.9c-8.7-0.4-5.8-7.8-5.6-13c0-0.2,0-0.3,0-0.5
	c0.1-5.1,1.2-16.3,2.9-18s7.7,7.8,7.7,7.8s11.6,3.4,14.8-6.8s9.7-11.2,9.7-11.2c3-1.3,3.1,6.4,3.1,6.4l24.7,12.7l14.5,2.3
	c0.5,0.2,0.9,0.4,1.3,0.6C946.4,828.9,943.5,833.8,938.7,837.9z"/>
<circle class="st7" cx="893.1" cy="817.3" r="1.1"/>
<circle class="st7" cx="903.1" cy="822.2" r="1.1"/>
<circle class="st7" cx="908.3" cy="824.5" r="1.1"/>
<circle class="st7" cx="919" cy="828.6" r="1.1"/>
<circle class="st7" cx="913.5" cy="826.9" r="1.1"/>
<path class="st6" d="M938.7,837.9c-6.2,5.3-14.1,8.1-22.2,8c-15-0.2-43.2-0.7-49.7-0.9c-8.7-0.4-5.8-7.8-5.6-13l54.9,3.4
	c0,0,22.5-3.4,23.8-10.1C946.4,828.9,943.5,833.8,938.7,837.9z"/>
<path class="st7" d="M938.7,837.7c-6.2,5.3-14.1,8.1-22.2,7.9c-15-0.2-43.2-0.7-49.7-0.9c-8.7-0.4-5.8-7.8-5.6-13l54.9,3.4
	c0,0,22.5-3.4,23.8-10.1C946.4,828.6,943.5,833.6,938.7,837.7z"/>
<path class="st4" d="M836.6,758.8c-2,1.6-3.9,3.5-5.5,5.5c-5.4,6.3-12.2,15.8-15.5,20.6c-1.3,1.9-2.1,3-2.1,3l-7.3-1.1
	c0,0-7.9-12-7.8-12.3s6.2-13.2,6.2-13.2l2.4-2.8l7.5-8.7l3.4-3.9C817.8,745.8,843.2,754,836.6,758.8z"/>
<path class="st5" d="M815.5,784.9c-1.3,1.9-2.1,3-2.1,3l-7.3-1.1c0,0-7.9-12-7.8-12.3s6.2-13.2,6.2-13.2l2.4-2.8l0.8,0.1h1.8
	c-6.5,6.8,0.5,21.7,0.5,21.7S813.1,780.7,815.5,784.9z"/>
<path class="st6" d="M807.4,800.1c0,0-4.9,10.5-7.5,16.5s-1.7,10.4-1.7,10.4c-0.2,0.8-0.5,1.5-0.8,2.2c-1.9,3.8-5.7,6.2-9.9,6.3
	c-0.2,0-0.3,0-0.5,0c-8.8-0.2-11.6-25.9-11.6-25.9s1.3-48.9,3.9-52c0.3-0.4,0.8-0.6,1.3-0.7c2.6-0.4,5.2-0.5,7.8-0.2
	c8,0.6,18.3,2.5,18.3,2.5h1.8c-6.5,6.8,0.5,21.7,0.5,21.7s3.1,0.3,5.5,4.7S807.4,800.1,807.4,800.1z"/>
<circle class="st7" cx="796.7" cy="785.5" r="1.1"/>
<circle class="st7" cx="796.2" cy="794" r="1.1"/>
<path class="st6" d="M796.7,829c-1.2,2.4-4,5.8-9.9,6.3h-0.4c-8.8-0.2-11.7-25.9-11.7-25.9s1.4-48.9,3.9-52c0.3-0.4,0.8-0.6,1.3-0.7
	c2.6-0.4,5.2-0.5,7.8-0.2c-0.2,8.8-0.6,36.6,0,39.3S793.2,821.6,796.7,829z"/>
<path class="st7" d="M797.4,829.2c-1.9,3.8-5.7,6.2-9.9,6.3c-0.2,0-0.3,0-0.5,0c-8.8-0.2-11.7-25.9-11.7-25.9s1.4-48.9,3.9-52
	c0.3-0.4,0.8-0.6,1.3-0.7c2.6-0.4,5.2-0.5,7.8-0.2c-0.2,8.8-0.6,36.6,0,39.3S793.8,821.8,797.4,829.2z"/>
<path class="st6" d="M786.4,835.3c-8.8-0.2-11.7-25.9-11.7-25.9s1.4-48.9,3.9-52c0.3-0.4,0.8-0.6,1.3-0.7c1.9,2.8,3.5,8.9,2,22.3
	c-2.8,25.5,0.6,27.1,0.6,27.1S786.5,827.7,786.4,835.3z"/>
<path class="st5" d="M786.2,835.3c-8.9-0.2-11.7-25.9-11.7-25.9s1.4-48.9,3.9-52c0.3-0.4,0.8-0.6,1.3-0.7c1.9,2.8,3.5,8.9,2,22.3
	c-2.8,25.5,0.6,27.1,0.6,27.1S786.4,827.7,786.2,835.3z"/>
<path class="st5" d="M971.5,488.9c-1.2,0.7-2.4,1.2-3.8,1.4c-5,0.1-9-13.2-9-13.2s1.4-1.4,3.7-3.4
	C963.9,477.3,968.4,487.1,971.5,488.9z"/>
<path class="st8" d="M939.8,484.1c0,0,4.1,0.3,6.7-1.5s13.8-6.5,14.1-9.8c0,0,6.7,16.3,10.5,16.9c0,0-11.6,9.2-12.5,12.1
	s-23.6,10-23.6,10L939.8,484.1z"/>
<path class="st6" d="M939.8,484.1c0,0,4.1,0.3,6.7-1.5s13.8-6.5,14.1-9.8c0,0,6.7,16.3,10.5,16.9c0,0-11.6,9.2-12.5,12.1
	s-23.6,10-23.6,10L939.8,484.1z"/>
<path class="st5" d="M836.6,758.8c-2,1.6-3.9,3.5-5.5,5.5c-8.8-3.7-14.4-11.2-16.6-14.5l3.4-3.9C817.8,745.8,843.2,754,836.6,758.8z
	"/>
<path class="st9" d="M878.1,676.2c0,0-14.2,19-19.4,21.2s-44,49.7-44,49.7s8.3,15.4,23.7,17.9c0,0,8.3-3.3,11.5-10.7
	s27.5-28.1,27.5-28.1L878.1,676.2z"/>
<path class="st5" d="M878.1,676.2c0,0-14.2,19-19.4,21.2s-44,49.7-44,49.7s8.3,15.4,23.7,17.9c0,0,8.3-3.3,11.5-10.7
	s27.5-28.1,27.5-28.1L878.1,676.2z"/>
<path class="st5" d="M835,739.9c4.3,0.5,8.7,0.5,13,0C855.6,739.1,849.8,743.8,835,739.9z"/>
<path class="st5" d="M831.5,744.8c0,0,10.2,5.8,14.1,2.9S841.8,750.5,831.5,744.8z"/>
<path class="st5" d="M890.9,785.7c-0.3,1.5-0.5,3.1-0.5,4.7c-7.9,7.1-17.3,4.9-23.3,2.3c0-4.4-0.1-7.4-0.1-7.4
	S893.6,773.6,890.9,785.7z"/>
<path class="st9" d="M938.1,532.5l-0.3,5.4l-2.4,45.1c0,0-2,10.1-1.2,29.5s-10.8,50.1-10.8,50.1s-5.6,20.8-7.4,30.3
	s-7.2,12.4-7.2,12.4s1.4,10.7-2.5,14.4s-4.1,9.9-4.1,9.9s-6,33.4-8,36.7s-1.8,20.8-1.8,20.8c-12.6,15-31.1,1.4-31.1,1.4l0.2-46.8
	c0,0,5.2-43.1,9.1-49.1s3.9-22.5,3.9-22.5l-1.7-38.4c0,0-1.4-4.1-0.2-6.4s-3.3-8.7-3.3-8.7c-10.9-13.2-12.4-42.9-9.3-48.7
	s12.6-29.1,12.6-29.1l13-7.6l23.5,0.7L938.1,532.5z"/>
<path class="st5" d="M882.9,761.3c0,0,3.1,10.6,5.5,11.8S882.9,761.3,882.9,761.3z"/>
<path class="st5" d="M887.1,725.9c0,0,8,6.3,11.3,6.3S887.1,725.9,887.1,725.9z"/>
<path class="st4" d="M935,463.1v12.8l-8.5-3.6l-8.4-3.6l-18.3-18c0,0-14.5-9.4-22.3-18c-4.4-4.9-6.7-9.5-2.8-12
	c1.9-1.2,3.6-2.7,5.1-4.5c3.9-4.6,7.3-9.6,10.1-14.9l0.4-0.7c3.8-6.9,6.3-12.9,6.3-12.9s10.6,3.4,17.5,8.2c0.5,0.4,1.1,0.8,1.6,1.2
	c3.8,3.1,5.7,6.8,2.2,10.4c-0.9,0.9-1.7,1.9-2.5,3l0,0c-0.6,0.8-1.1,1.6-1.5,2.5c-0.2,0.4-0.4,0.8-0.6,1.1
	c-2.4,4.8-3.2,10.3-2.3,15.5L935,463.1z"/>
<path class="st5" d="M917.8,407.5c-0.9,0.9-1.7,1.9-2.5,3l0,0c-0.6,0.8-1.1,1.6-1.5,2.5c-0.2,0.4-0.4,0.8-0.6,1.1
	c-9.1-0.5-17.5-5-22.9-12.4c-0.1-0.2-0.3-0.3-0.4-0.5l0.4-0.7c3.8-6.9,6.3-12.9,6.3-12.9s10.6,3.4,17.5,8.2c0.5,0.4,1.1,0.8,1.6,1.2
	C919.4,400.3,921.4,403.9,917.8,407.5z"/>
<path class="st4" d="M945.4,382.4c0,16.9-13.6,30.5-30.5,30.6c0,0-0.1,0-0.1,0h-0.1c-0.3,0-0.7,0-1,0c-16.9-0.6-30-14.8-29.4-31.7
	c0.6-16.9,14.8-30,31.7-29.4c15.1,0.6,27.6,12.1,29.3,27.2C945.4,380.2,945.4,381.3,945.4,382.4z"/>
<path class="st5" d="M918.9,458c0,0,15.4,8.7,11.5,1.4l-20.1-29.7l0,0l22.8,29.3c0,0,14.6,20,6.6,33.8c0,0-1.2,11.5,0.2,14.2
	s-0.4,31.7-0.4,31.7s-5.4-5-8.3-4.1s-23.5,2.7-23.5,2.7L918.9,458z"/>
<path class="st5" d="M938.1,532.5l-0.3,5.4c-1.8-1.3-4.4-2.8-6.1-2.3c-2.9,1-23.5,2.7-23.5,2.7l1-6.7L938.1,532.5z"/>
<path class="st10" d="M919.5,458c0,0,15.4,8.7,11.5,1.4l-20.1-29.7l0,0l22.8,29.3c0,0,14.6,20,6.6,33.8c0,0-1.2,11.5,0.2,14.2
	s-0.4,31.7-0.4,31.7s-5.4-5-8.3-4.1s-23.5,2.7-23.5,2.7L919.5,458z"/>
<path class="st5" d="M927.7,472.9c-0.9,9.3-4.7,20.4-4.7,20.4s-2.7,27.6-6.2,35.7s-1.9,19.4-3.9,40.2c-0.7,7.5-3.1,12.6-6.4,16.1
	c-5.3,5.7-13,6.9-19,6.5c-0.5,0-1-0.1-1.4-0.1c-9.7-1-19-47.8-19-47.8s-4.5-39.8-2.7-45.2s-1.7-36.5-2.9-43.3
	c-0.7-4.3,1.5-11.3,3.2-15.9c1-2.7,1.8-4.5,1.8-4.5s3.3-10.5,8.7-15.9c1.5-1.6,3.6-2.4,5.8-2.4c2.6,0.1,5,0.9,7.2,2.2l0.2,0.2
	c0,0,35.3,36.1,38.6,44.5C927.9,465.9,928,469.3,927.7,472.9z"/>
<path class="st6" d="M926.5,472.3c-0.9,9.3-4.7,20.4-4.7,20.4s-2.7,27.6-6.2,35.7s-2,19.4-3.9,40.2c-0.7,7.5-3.1,12.6-6.4,16.1
	c-5.3,5.7-13,6.9-19,6.5l-1.4-0.1c-9.7-1-19-47.8-19-47.8s-4.5-39.8-2.7-45.2s-1.8-36.5-2.9-43.3c-0.7-4.3,1.5-11.3,3.2-15.9
	c1-2.6,1.8-4.5,1.8-4.5s3.3-10.5,8.7-15.9c1.5-1.5,3.6-2.4,5.8-2.4c2.6,0.1,5,0.9,7.2,2.2l0.2,0.2c0,0,35.3,36.1,38.6,44.5
	C926.8,465.4,926.9,468.7,926.5,472.3z"/>
<path class="st5" d="M886.9,614.4c0,0-8,7.1-10.8,6.8S886.9,614.4,886.9,614.4z"/>
<path class="st5" d="M889.1,621.2c0,0-8.4,3.9-11,4.5S885.8,620.2,889.1,621.2z"/>
<path class="st5" d="M921.7,514.1c0,0,12.5,0.1,14.4,4.1S925.8,512.5,921.7,514.1z"/>
<path class="st5" d="M920,520.9c0,0,9.6,2,12.5,4.4S920,520.9,920,520.9z"/>
<path class="st5" d="M903.8,497.2c0,0-1.2,39.5-5.5,44.5S903.8,497.2,903.8,497.2z"/>
<path class="st5" d="M893,608.7c0,0-8,34.8,8.1,37s11.1-39.6,11.1-39.6L893,608.7z"/>
<path class="st4" d="M892.5,608.1c0,0-8,34.8,8.1,37s11.1-39.6,11.1-39.6L892.5,608.1z"/>
<path class="st5" d="M906.2,462c-0.8-20.9-30.1-25.2-36.9-5.5c0,0.1-0.1,0.3-0.1,0.4c-4.5,13.4-2.5,47.3-2.5,47.3s0.6,22.8,2.7,30.3
	s8.2,29.3,8.2,32.8s5.6,16.9,7.9,17.9s3.5,8.5,4.1,9.9s2.3,19,2.3,19s21.9-1.4,22.3-4.8s-4.8-20.6-4.8-20.6s-3.9-7-4.4-12.6
	s-3.6-8.2-3-12s-1.8-5.8-1.8-8.3s-1.7-9.3-1.7-9.3s-3.7-2.9-3.1-6.4s-5.2-10.5-3.7-13s1.9-8.7,1.9-8.7s1.9-28,3.3-35.5
	c1.4-7.5,9.3-19.8,9.3-19.8S906.2,462.7,906.2,462z"/>
<path class="st5" d="M905.4,584.7c-5.3,5.7-13,6.9-19,6.5c-0.7-2.7-1.7-5.9-3.2-6.5c-2.3-1-7.9-14.4-7.9-17.8s-6-25.2-8.2-32.8
	s-2.7-30.3-2.7-30.3s-2-33.9,2.5-47.3c0-0.1,0.1-0.3,0.1-0.4c6.8-19.8,36.1-15.5,36.9,5.5c0,0.6,0,1,0,1s-8,12.2-9.3,19.8
	c-1.3,7.6-3.3,35.5-3.3,35.5s-0.4,6.2-1.9,8.7s4.3,9.5,3.7,13s3.1,6.4,3.1,6.4s1.8,6.8,1.8,9.3s2.3,4.5,1.8,8.3s2.5,6.4,3,12
	C903.1,578.7,904,581.8,905.4,584.7z"/>
<path class="st6" d="M905.1,461.5c-0.8-20.9-30.1-25.2-36.9-5.5c0,0.1-0.1,0.3-0.1,0.4c-4.5,13.4-2.5,47.3-2.5,47.3
	s0.6,22.8,2.7,30.3s8.2,29.3,8.2,32.8s5.6,16.9,7.9,17.8s3.5,8.5,4.1,9.9s2.3,19,2.3,19s21.9-1.4,22.3-4.9s-4.8-20.6-4.8-20.6
	s-3.9-7-4.4-12.6s-3.6-8.2-3-12s-1.8-5.8-1.8-8.3s-1.8-9.3-1.8-9.3s-3.7-2.9-3.1-6.4s-5.2-10.5-3.7-13s1.9-8.7,1.9-8.7
	s1.9-28,3.3-35.5c1.4-7.5,9.3-19.8,9.3-19.8S905.1,462.1,905.1,461.5z"/>
<path class="st5" d="M869,515.2c0.6-0.6,11.7-12.8,15.1-8.4S869,515.2,869,515.2z"/>
<path class="st5" d="M870,524.7c0.4-0.4,11.1-0.9,13.7-6.8S870,524.7,870,524.7z"/>
<g class="st11">
	<path d="M857.9,417.4c0.3,0.3,0.5,0.7,0.6,1c0.4-1.4,0.2-2.8-0.6-4c-0.5-0.6-1.3-1-1.8-1.6c0,0-0.1-0.1-0.1-0.2
		c-0.5,1-0.5,2.2,0.1,3.1C856.7,416.4,857.4,416.8,857.9,417.4z"/>
	<path d="M872.8,379.6c0-1.1,0-2.2,0-3.3c-0.2-4-0.9-8-1.1-12c-0.2,4.9,0.8,10,1.1,14.9V379.6z"/>
</g>
<path class="st10" d="M975.8,480.6l0.6,0.4c-1.1-0.8-1.4-2.3-0.6-3.3l27-39.2c0.8-1.1,2.2-1.4,3.3-0.6c0,0,0,0,0,0l-0.6-0.4
	c1.8,1.2,2.2,3.6,1,5.4c0,0,0,0,0,0l-25.3,36.8C980,481.4,977.6,481.8,975.8,480.6C975.8,480.6,975.8,480.6,975.8,480.6z"/>
<path class="st12" d="M1005.6,437.5l0.6,0.4l0,0L976.5,481l0,0l-0.6-0.4c-0.8-0.5-1-1.6-0.4-2.4l27.7-40.2
	C1003.7,437.1,1004.7,436.9,1005.6,437.5C1005.6,437.4,1005.6,437.5,1005.6,437.5z"/>
<path class="st10" d="M1002.3,443.4l0.1,0.1c0.1,0.1,0.1,0.2,0,0.2l-2.2,3.2c-0.1,0.1-0.2,0.1-0.2,0l-0.1-0.1
	c-0.1-0.1-0.1-0.2,0-0.2l2.2-3.2C1002.2,443.4,1002.3,443.4,1002.3,443.4z"/>
<path class="st5" d="M949.3,378.7c-0.4-2.1-2.1-3.6-3.3-5.4c-2.9-4.4-2.5-10.3-1.1-15.4c0.5-1.4,0.7-2.9,0.6-4.4
	c-0.4-1.9-1.6-3.5-3.2-4.5c-3.6-2.4-8.2-2.4-12.3-3.9c-5.9-2.2-11.2-7.5-17.4-6.2c-3.4,0.7-5.9,3.3-8.8,5.1c-3.2,2-6.9,3.1-10.7,3.3
	c-3.2,0.1-6.4-0.5-9.5,0c-0.6,0.1-1.1,0.3-1.7,0.5c-2.7-0.9-5.5-1.4-8.3-1.3c-2.8-0.1-5.5,0.7-7.8,2.2c-4.2,3-5.4,8.8-5.3,13.9
	c0.1,5.2,0.9,10.5-0.7,15.4c-2,6.1-7.5,10.8-8.6,17.1c-0.8,4.3,0.7,8.7,1.9,12.8c3.6,12,6,25.3,1.2,36.9c-1.2,2.9-3.1,5.9-6,7.2
	l10.3-0.6c0.5,3-1.6,5.9-4.7,6.4c0,0,0,0,0,0c2.6-0.2,5.1-0.7,7.5-1.7c2.4-1,4.2-3.2,4.8-5.7c0.2-1.4-0.1-2.8,0.3-4.2
	c0.7-2.3,3-3.6,5-5.1c5-3.9,7.4-10.5,7.6-16.8c0.2-6.4-1.5-12.6-3.3-18.7c-1.8-6.1-3.7-12.2-4-18.6c-0.1-2.3,0.1-4.6,0.6-6.9
	c0.4,0.7,0.8,1.4,1.2,2c2.5,3.8,5.4,7.4,6.9,11.6c0.5,2,1.3,4,2.2,5.9c1.1,1.8,3,3.3,5.1,3c2.1-0.3,3.6-2.5,4.3-4.7
	c0.7-2.1,1-4.4,2.3-6.2c2.4-3.4,7.3-3.7,11.5-3.6c8.8,0.3,21.1,1.6,28-5.2c1.3-1.3,2-3.3,4-2.8c1.8,0.4,2.9,3.4,4.8,4.1
	C945.9,385.2,950,382.2,949.3,378.7z"/>
<path class="st10" d="M949.3,377.5c-0.4-2.1-2.1-3.6-3.3-5.4c-2.9-4.4-2.5-10.3-1.1-15.4c0.5-1.4,0.7-2.9,0.6-4.4
	c-0.4-1.9-1.6-3.5-3.2-4.5c-3.6-2.4-8.2-2.4-12.3-3.9c-5.9-2.2-11.2-7.5-17.4-6.2c-3.4,0.7-5.9,3.3-8.8,5.1c-3.2,2-6.9,3.1-10.7,3.3
	c-3.2,0.1-6.4-0.5-9.5,0c-0.6,0.1-1.1,0.3-1.7,0.5c-2.7-0.9-5.5-1.4-8.3-1.3c-2.8-0.1-5.5,0.7-7.8,2.2c-4.2,3-5.4,8.8-5.3,13.9
	s0.9,10.5-0.7,15.4c-2,6.1-7.5,10.8-8.6,17.1c-0.8,4.3,0.7,8.7,1.9,12.8c3.6,12,6,25.3,1.2,36.9c-1.2,3-3.1,5.9-6,7.2l10.3-0.6
	c0.5,3-1.6,5.9-4.7,6.3c0,0,0,0,0,0c2.6-0.2,5.1-0.7,7.5-1.7c2.4-1,4.2-3.2,4.8-5.7c0.2-1.4-0.1-2.8,0.3-4.2c0.7-2.3,3-3.6,5-5.1
	c5-3.9,7.4-10.5,7.6-16.8c0.2-6.3-1.5-12.6-3.3-18.7c-1.8-6.1-3.7-12.2-4-18.6c-0.1-2.3,0.1-4.6,0.6-6.9c0.4,0.7,0.8,1.4,1.2,2
	c2.5,3.8,5.4,7.4,6.9,11.6c0.5,2,1.3,4,2.2,5.9c1.1,1.8,3,3.3,5.1,3s3.6-2.5,4.3-4.7s1-4.4,2.3-6.2c2.4-3.4,7.3-3.7,11.5-3.6
	c8.8,0.3,21.1,1.6,28-5.2c1.3-1.3,2-3.3,4-2.8c1.8,0.4,2.9,3.4,4.8,4.1C945.9,384.1,950,381.1,949.3,377.5z"/>
<g class="st11">
	<path d="M860.6,359.3c0,0.7,0,1.3,0,2c0,2.2,0.2,4.4,0.3,6.5C860.9,365,860.7,362.1,860.6,359.3z"/>
	<path d="M857.1,427.3c0.3-8-1.5-16.2-3.9-24c-0.9-2.8-1.6-5.6-2-8.5c-0.4,4,0.9,8,2,11.9C855.3,413.4,856.6,420.3,857.1,427.3z"/>
	<path d="M943.8,362.3c0.2-1.9,0.5-3.8,1-5.6c0.5-1.4,0.7-2.9,0.6-4.4c0-0.3-0.1-0.5-0.2-0.8c-0.1,0.6-0.3,1.2-0.4,1.8
		C944,356.2,943.7,359.3,943.8,362.3z"/>
	<path d="M858.7,446.8l-6.2,0.4c-1,1.6-2.4,2.8-4.1,3.6l9.7-0.6C858.7,449.2,858.9,448,858.7,446.8z"/>
	<path d="M949,376.6c-1.1,2.4-3.8,3.6-6.3,3c-2-0.7-3-3.7-4.8-4.1c-2-0.5-2.7,1.5-4,2.8c-6.9,6.8-19.1,5.5-28,5.2
		c-4.2-0.1-9.1,0.2-11.5,3.6c-1.3,1.8-1.6,4.1-2.3,6.2s-2.1,4.3-4.3,4.7c-2.2,0.3-4-1.2-5.1-3c-0.9-1.9-1.6-3.8-2.2-5.9
		c-1.5-4.3-4.4-7.9-6.9-11.6c-0.4-0.6-0.8-1.3-1.2-2c-0.5,2.3-0.8,4.6-0.6,6.9c0,0.2,0,0.3,0,0.5c0.1-1.3,0.3-2.7,0.6-4
		c0.4,0.7,0.8,1.4,1.2,2c2.5,3.8,5.4,7.4,6.9,11.6c0.5,2,1.3,4,2.2,5.9c1.1,1.8,3,3.3,5.1,3s3.6-2.5,4.3-4.7s1-4.4,2.3-6.2
		c2.4-3.4,7.3-3.7,11.5-3.6c8.8,0.3,21.1,1.6,28-5.2c1.3-1.3,2-3.3,4-2.8c1.8,0.4,2.9,3.4,4.8,4.1c3.2,1.1,7.3-1.9,6.6-5.5
		C949.2,377.2,949.1,376.9,949,376.6z"/>
	<path d="M871.5,436.5c-1.9,1.5-4.3,2.8-5,5.1c-0.4,1.4-0.1,2.8-0.3,4.2c-0.5,2.6-2.3,4.7-4.8,5.8c-0.9,0.4-1.9,0.8-3,1
		c-0.6,2.2-2.4,3.8-4.6,4.1c2.6-0.2,5.1-0.7,7.5-1.7c2.4-1,4.2-3.2,4.8-5.7c0.2-1.4-0.1-2.8,0.3-4.2c0.7-2.3,3-3.6,5-5.1
		c5-3.9,7.4-10.5,7.6-16.8c0-1,0-1.9,0-2.8C878.7,426.4,876.4,432.7,871.5,436.5z"/>
</g>
<linearGradient id="SVGID_00000031171926965594784450000000899037071975437240_" gradientUnits="userSpaceOnUse" x1="212.0134" y1="269.81" x2="490.65" y2="269.81" gradientTransform="matrix(1 0 0 -1 -28.64 849.39)">
	<stop  offset="0" style="stop-color:#808080;stop-opacity:0.25"/>
	<stop  offset="0.54" style="stop-color:#808080;stop-opacity:0.12"/>
	<stop  offset="1" style="stop-color:#808080;stop-opacity:0.1"/>
</linearGradient>
<path style="fill:url(#SVGID_00000031171926965594784450000000899037071975437240_);" d="M455.5,818.8h0.2c0,0-36.7-99.6-47-113.1
	c0,0-10.8-6.3-10.3-16.9l-13.2-63.4c0,0,0.2-0.2,0.5-0.5l0.3-0.3c0.1-0.1,0.2-0.2,0.3-0.4c1.8-2,3.2-4.3,4.4-6.8
	c0.1-0.2,0.1-0.3,0.2-0.5c0.5-1.1,0.9-2.3,1.2-3.4c0.9,0.3,1.9,0.3,2.8-0.2c0,0,0-0.3,0-1l0,0c0,0-0.1-3.8-0.1-9.6
	c0-1.6,0-3.4,0-5.3c0.4-1.5,0.8-3.1,1-4.6l-0.5-0.2c0-0.1,0-0.2,0-0.2l-0.5-0.2c0.4-13.9,1.6-31.7,5-43.8c0.1-0.4,0.2-0.8,0.4-1.3
	c4.1-13.2,4.2-29.3,5.2-43c0.8,1.7,1.5,3.5,2.1,5.3c0.5-0.6,1.1-1.1,1.8-1.5l4.1,32.4v38.2c0,0-6.9,49.3,14.7,40.1s5.9-43,5.9-43
	s0-18.8,2.9-28.5c1.9-6.4,0.7-27-0.4-40.3c2.1,0.4,3.3,0.7,3.3,0.7c0.5-1.9,0.7-3.9,0.6-5.9c0.4-22.3-27.4-58.2-38.7-71.9
	c-3.2-4.9-7.8-8.8-13.1-11.3l-21.8-10.4c0,0-10.2-2.5-14.2-10.3c0-0.1-0.1-0.3-0.1-0.4c0.5-0.2,0.9-0.4,1.3-0.6
	c3.3-1.6,6.2-3.9,8.5-6.8c4.6-5.8,6.8-13.1,9-20.2c2.5-8.3,5-16.9,4.7-25.6c-0.3-8.7-4-17.7-11.5-22.4c-6.4-3.9-15.3-4.7-19.2-11
	c-1.1-1.7-1.7-3.7-3.1-5.1c0-0.6-0.4-1.1-1-1.2l-11.1-2.1c-0.6-0.1-1.3,0.3-1.4,0.9v0.1c-9.8,0.3-19.4,2.7-28.2,7.1
	c-3.1,1.5-6.1,3.2-8.9,5.2c-4,2.8-8,6.5-8.6,11.4c-0.3,2.4,0.3,4.9-0.2,7.2c-1.3,6.3-9.9,10.4-8.6,16.8c0.8,4.3,5.8,6.2,10.4,6.2
	c-0.9,3-1.3,6.1-1.3,9.2c0.1,16.4,11.7,30.4,27.7,33.6c3.4,4.7,6.3,9.6,8.8,14.8c-5.6,5.3-17.5,17.6-10.2,21.7l-15,36.7l1.5,37.9
	l-6.3,5.6l1.4,1.7c-7.1,8.2-23.6,26.1-35.6,30.8c-1.7,0.7-3.4,1.5-5,2.4c-2.2,1.4-4.7,2.3-7.2,2.8c-1.1,0.1-2.2,0.3-3.3,0.6
	l-2.9-5.9c-1-2.1-3.6-3-5.7-2l-1.8,0.8l0,0l-4.2,2l-1.7,0.8l0,0l-1.3,0.6c-2.1,1-3,3.5-2,5.6c0,0,0,0,0,0l3.5,7.1
	c-4.9,4.3-7.4,9.5-0.6,14.2c2.6,1.9,5.8,2.9,9,2.8l2.1,4.3c1,2.1,3.6,3,5.7,2l3.1-1.5l6-2.8c2.1-1,3-3.5,2-5.6c0,0,0,0,0-0.1
	l-1.7-3.6c3.9-3,7.5-6.4,10.6-10.1c0,0,8.9-5.5,14.2-6.8c3.5-0.8,15.7-8.8,23.3-13.8l2.2,55.8c-0.5,0.7-1,1.4-1.7,2l1.7-1.2v0.4
	c-0.2,0.3-0.5,0.5-0.7,0.8l0.7-0.5v0.7c-0.2,0.3-0.5,0.6-0.8,0.8l0.8-0.5l0.2,5.8l3.7-6l0.2,6l0.9-1.4c-10.3,17.3-23.8,42.9-31,68.6
	c0,0-11.2,19.3-9.8,39.2L243.3,812l0.4,0.2c-6.7,4.8-20.8,13.5-34.7,13.9c0,0-33.3-1-24,6.3s92,17.9,92,17.9l3.2-24.4l0.7,0.3
	c0,0,0-0.1,0-0.4l1,0.4c0,0-2-12.1,5.4-18.8s24.5-75.4,23-86c0,0,13.1-32.4,29.6-58.3l19.4,49.1l21.5,36.7c0,0,28.6,62.9,27.7,76.9
	c-6,7.3-16.8,18.6-24.8,18.3c0,0-32.8,6.3-10.3,12.1c22.5,5.8,88.6-16,88.6-16L455.5,818.8z M312.1,593.9l0.2-0.1
	c-1,1.5-2.1,3.3-3.3,5.2L312.1,593.9z"/>
<linearGradient id="SVGID_00000048464223630573790390000017327353665639155613_" gradientUnits="userSpaceOnUse" x1="325.27" y1="247.64" x2="326.52" y2="247.64" gradientTransform="matrix(1 0 0 -1 -28.64 849.39)">
	<stop  offset="0" style="stop-color:#808080;stop-opacity:0.25"/>
	<stop  offset="0.54" style="stop-color:#808080;stop-opacity:0.12"/>
	<stop  offset="1" style="stop-color:#808080;stop-opacity:0.1"/>
</linearGradient>
<path style="fill:url(#SVGID_00000048464223630573790390000017327353665639155613_);" d="M297.9,601.3c-0.8,0.6-1.2,0.9-1.2,0.9
	C297.1,602,297.5,601.7,297.9,601.3z"/>
<linearGradient id="SVGID_00000057867686478884362350000014451695064960922283_" gradientUnits="userSpaceOnUse" x1="326.25" y1="246.675" x2="327.5" y2="246.675" gradientTransform="matrix(1 0 0 -1 -28.64 849.39)">
	<stop  offset="0" style="stop-color:#808080;stop-opacity:0.25"/>
	<stop  offset="0.54" style="stop-color:#808080;stop-opacity:0.12"/>
	<stop  offset="1" style="stop-color:#808080;stop-opacity:0.1"/>
</linearGradient>
<path style="fill:url(#SVGID_00000057867686478884362350000014451695064960922283_);" d="M298.9,602.3l-1.2,0.9
	C298.1,602.9,298.5,602.6,298.9,602.3z"/>
<linearGradient id="SVGID_00000001654032684577402320000012347933935739660168_" gradientUnits="userSpaceOnUse" x1="326.25" y1="247.64" x2="327.5" y2="247.64" gradientTransform="matrix(1 0 0 -1 -28.64 849.39)">
	<stop  offset="0" style="stop-color:#808080;stop-opacity:0.25"/>
	<stop  offset="0.54" style="stop-color:#808080;stop-opacity:0.12"/>
	<stop  offset="1" style="stop-color:#808080;stop-opacity:0.1"/>
</linearGradient>
<path style="fill:url(#SVGID_00000001654032684577402320000012347933935739660168_);" d="M298.9,601.3c-0.8,0.6-1.2,0.9-1.2,0.9
	C298.1,602,298.5,601.7,298.9,601.3z"/>
<path class="st17" d="M410.9,820.2c0,0-17.2,24.3-28.6,23.9c0,0-32,6.2-10,11.9s86.4-15.8,86.4-15.8l-7.7-25L410.9,820.2z"/>
<path class="st18" d="M334,651.2l24.3,62.5l21,36.3c0,0,28.9,64.2,27,76.6l46-7.4c0,0-35.8-98.3-45.8-111.7c0,0-10.5-6.2-10-16.7
	l-12.9-62.5c0,0,12.5-12.1,5.5-27.2c-0.4-0.8-0.8-1.6-1.2-2.3c-9.5-16.2-45.8-7.2-45.8-7.2L334,651.2z"/>
<path class="st19" d="M334,651.2l24.3,62.5l21,36.3c0,0,28.9,64.2,27,76.6l46-7.4c0,0-35.8-98.3-45.8-111.7c0,0-10.5-6.2-10-16.7
	l-12.9-62.5c0,0,12.5-12.1,5.5-27.2c-0.4-0.8-0.8-1.6-1.2-2.3c-9.5-16.2-45.8-7.2-45.8-7.2L334,651.2z"/>
<g class="st11">
	<path d="M406.6,707.6c0,0-10.5-6.2-10-16.7l-12.9-62.5c0,0,12.5-12.1,5.5-27.2c-0.4-0.8-0.8-1.6-1.2-2.3
		c-4.6-7.9-15.5-9.8-25.6-9.7c9.6,0.1,19.7,2.2,24.1,9.7c0.5,0.8,0.9,1.5,1.2,2.3c7,15.2-5.5,27.2-5.5,27.2l12.9,62.5
		c-0.5,10.5,10,16.7,10,16.7c10,13.4,45.8,111.7,45.8,111.7l-44.6,7.1c0,0.1,0,0.2,0,0.2l46-7.4
		C452.4,819.2,416.6,720.9,406.6,707.6z"/>
</g>
<path class="st17" d="M249.6,809.7c0,0-19.1,16.2-37.7,16.7c0,0-32.4-1-23.4,6.2s89.7,17.7,89.7,17.7l3.6-27.9L249.6,809.7z"/>
<g class="st11">
	<path d="M319.7,587.8c0,0-31.5,44.4-43.9,89.2c0,0-11,19.1-9.5,38.7l-20,96.9l36.7,13.8c0,0-1.9-11.9,5.2-18.6
		c7.2-6.7,23.9-74.5,22.4-85c0,0,22.9-57.3,45.8-79.7c22.9-22.4,34.3-27.6,37.7-47C394.1,596.2,340.2,570.1,319.7,587.8z"/>
</g>
<path class="st18" d="M318.8,587.8c0,0-31.5,44.4-43.9,89.2c0,0-11,19.1-9.5,38.7l-20,96.9l36.7,13.8c0,0-1.9-11.9,5.2-18.6
	c7.1-6.7,23.9-74.5,22.4-85c0,0,22.9-57.3,45.8-79.7c22.9-22.4,34.3-27.6,37.7-47C393.2,596.2,339.3,570.1,318.8,587.8z"/>
<g class="st11">
	<path d="M339.1,581.2c23.7,0.3,53.1,14.5,53.1,14.5c-3.4,19.4-14.8,24.5-37.7,47c-22.9,22.5-45.8,79.7-45.8,79.7
		c1.4,10.5-15.3,78.3-22.4,85c-6.2,5.8-5.6,15.6-5.3,18l1.5,0.6c0,0-1.9-11.9,5.2-18.6c7.2-6.7,23.9-74.5,22.4-85
		c0,0,22.9-57.3,45.8-79.7c22.9-22.4,34.3-27.6,37.7-47C393.7,595.7,363,580.9,339.1,581.2z"/>
</g>
<path class="st4" d="M295.4,518.6c0,0-22.8,28.4-38.2,34.5c-1.7,0.7-3.3,1.5-4.9,2.4c-2.1,1.4-4.5,2.3-7,2.8
	c-1.8,0.2-3.6,0.6-5.3,1.4c-8,3.7-26.4,13.6-14.3,22.4c15.3,11,35.8-14.3,35.8-14.3s8.7-5.5,13.8-6.7s28.6-17.7,28.6-17.7
	L295.4,518.6z"/>
<polygon class="st6" points="299.7,512.8 290.6,521 304,537.7 "/>
<g class="st11">
	<polygon points="299.7,512.8 290.6,521 304,537.7 	"/>
</g>
<path class="st6" d="M322.7,417.9c0,0-21.7,18.6-12.6,23.9L295.4,478l5,132.7l20.7-34.4L307,501.9c0,0-4-44.4,7.6-54.9l11.1-22
	L322.7,417.9z"/>
<g class="st11">
	<path d="M325.5,411.2c0,0-21.7,18.6-12.6,23.9l-14.7,36.3l5,132.7l20.7-34.4l-14.1-74.5c0,0-4-44.4,7.6-54.9l11.1-22L325.5,411.2z"
		/>
</g>
<path class="st4" d="M305.9,398.3c0,0,17.7,21.5,17.2,33.9c-0.5,12.4,33.4-21.5,33.4-21.5s-12.9-15.8-9.5-32.5
	C350.3,361.6,305.9,398.3,305.9,398.3z"/>
<path class="st4" d="M406.6,506.2l4.8,38.2v37.7c0,0-6.7,48.7,14.3,39.6s5.7-42.5,5.7-42.5s0-18.6,2.9-28.2s-1.4-51.5-1.4-51.5
	L406.6,506.2z"/>
<path class="st20" d="M341.2,416c0,0-12.8,12.4-19.6,8.1l-9.2,22.8c-5.6,13.9-8.1,28.9-7.5,43.9l3.2,86.1l14.3-1.9l4.8-81.6
	l7.2-49.6L341.2,416z"/>
<g class="st11">
	<path d="M351.9,402.8c0,0-16.9,11.7-21.7,21.7c0,0-0.5,11-4.3,15.8c-3.8,4.8-7.6,28.6-8.6,57.3c-1,28.6-5.2,66.8-5.2,66.8
		s-7.2,37.2-14.8,41c0,0,35.3-26.7,52.5-17.7s36.8,31,42.5,27.7c0,0-1.4-41.8,4.9-64.1c0.1-0.4,0.2-0.8,0.4-1.2
		c6.7-22,2.4-52,10-64.9c0,0,0-23.3-4.4-40.8c-2.3-9-8.5-16.5-16.8-20.6l-21.2-10.2C365.1,413.6,353.8,411.9,351.9,402.8z"/>
</g>
<g class="st11">
	<path d="M351.9,402.8c0,0-16,12.6-20.8,22.7c0,0-0.5,11-4.3,15.8s-7.6,28.6-8.6,57.3c-0.9,28.6-5.2,66.9-5.2,66.9
		s-7.2,37.2-14.8,41c0,0,35.3-26.7,52.5-17.7s36.8,31,42.5,27.7c0,0-1.4-41.8,4.9-64.1c0.1-0.4,0.2-0.8,0.4-1.2
		c6.7-22,2.4-52,10-64.9c0,0,0-23.3-4.4-40.7c-2.3-9-8.5-16.5-16.8-20.6L366,414.5C366,414.5,353.8,411.9,351.9,402.8z"/>
</g>
<path class="st6" d="M351.7,402.6c0,0-15.8,11.9-20.5,22c0,0-0.5,11-4.3,15.8s-7.6,28.6-8.6,57.3c-0.9,28.6-5.2,66.8-5.2,66.8
	s-7.2,37.2-14.8,41c0,0,35.3-26.7,52.5-17.7s36.8,31,42.5,27.7c0,0-1.4-41.8,4.9-64.1l0.4-1.2c6.7-22,2.4-52,10-64.9
	c0,0,0-23.3-4.4-40.8c-2.3-9-8.5-16.5-16.8-20.6L366,413.5C366,413.5,355.3,411,351.7,402.6z"/>
<g class="st11">
	<path d="M395.4,430.5c0,0,48.4,55.1,41.8,81.4c0,0-24.8-5.7-31.5,1.9c0,0-5.2-17.7-21-27.7S354.4,411.9,395.4,430.5z"/>
</g>
<path class="st6" d="M395.4,429.6c0,0,48.4,55.1,41.8,81.4c0,0-24.8-5.7-31.5,1.9c0,0-5.2-17.7-21-27.7
	C368.9,475.1,354.4,411,395.4,429.6z"/>
<g class="st11">
	<path d="M348.1,389c-0.8-3.9-0.1-4.1,0.7-8.4c3.3-16.7-41,20-41,20s2.5,3,5.5,7.4c2.3,0.5,4.6,0.7,6.9,0.7
		C332.4,408.8,342.1,398.6,348.1,389z"/>
</g>
<circle class="st4" cx="318.3" cy="372.5" r="33.9"/>
<g class="st11">
	<path d="M287.8,363.3c-5,0.7-11.4-1-12.3-5.9c-1.2-6.2,7.1-10.3,8.4-16.5c0.5-2.3-0.1-4.8,0.2-7.1c0.6-4.8,4.4-8.5,8.3-11.2
		c12.4-8.7,27.6-12.8,42.7-11.4c1.9,0,3.7,0.6,5.3,1.7c1.6,1.4,2.3,3.5,3.4,5.4c3.9,6.2,12.5,7,18.8,10.9
		c7.3,4.5,10.9,13.5,11.2,22.1c0.3,8.6-2.1,17-4.5,25.2c-2.1,7-4.2,14.2-8.7,19.9c-4.5,5.7-12,9.8-19.1,8c3.3-2.4,0.9-7.8-2.6-9.7
		c-3.5-1.9-7.9-2.2-10.9-4.9s-3.9-7-4.9-10.9c-1.2-5-3-10-6.6-13.6C309.4,358.1,296.5,362.1,287.8,363.3z"/>
</g>
<path class="st10" d="M288.8,362.8c-5,0.7-11.3-1-12.3-5.9c-1.2-6.2,7.1-10.3,8.4-16.5c0.5-2.3-0.1-4.8,0.2-7.2
	c0.6-4.8,4.4-8.5,8.4-11.2c12.4-8.7,27.6-12.8,42.7-11.4c1.9,0,3.7,0.6,5.3,1.7c1.7,1.3,2.3,3.5,3.4,5.3c3.9,6.2,12.5,7,18.8,10.9
	c7.3,4.5,10.9,13.5,11.2,22.1c0.3,8.6-2.1,17-4.5,25.2c-2.1,7-4.2,14.2-8.8,20c-4.5,5.7-12,9.8-19.1,8c3.2-2.3,0.9-7.8-2.6-9.7
	c-3.5-1.9-7.9-2.2-10.9-4.9c-3-2.6-3.9-7-4.9-10.9c-1.2-5-3-10-6.6-13.6C310.3,357.6,297.5,361.6,288.8,362.8z"/>
<path class="st6" d="M338.7,328.4l3.1-15.7c0.1-0.6-0.3-1.2-0.9-1.4c0,0,0,0,0,0l-10.8-2.1c-0.6-0.1-1.2,0.3-1.4,0.9c0,0,0,0,0,0
	l-3.1,15.7l-10.5,38.8l19.2,3.8L338.7,328.4z"/>
<g class="st11">
	<path d="M284.5,341.5c0.7-1.1,1.2-2.3,1.5-3.5c0.5-2.3-0.1-4.8,0.2-7.1c0.1-0.8,0.3-1.7,0.6-2.5c-0.9,1.4-1.5,3-1.7,4.7
		c-0.3,2.4,0.3,4.8-0.2,7.1C284.8,340.7,284.7,341.1,284.5,341.5z"/>
	<path d="M362.7,393.4c-4.5,5.7-11.8,9.6-18.8,8.1c-0.2,0.9-0.7,1.7-1.5,2.2c7.1,1.7,14.6-2.3,19.1-8c1.7-2.2,3.1-4.6,4.3-7.1
		C364.9,390.3,363.9,391.9,362.7,393.4z"/>
	<path d="M344,401.1c2.7-2.5,0.4-7.5-3-9.4c-3.5-1.9-7.9-2.2-10.9-4.9s-3.9-7-4.9-10.9c-1.2-5-3-10-6.6-13.6
		c-7.1-7.1-19.9-3.1-28.6-1.9c-5,0.7-11.4-1-12.3-5.9c-0.2-1.2-0.1-2.4,0.3-3.5c-1.2,1.7-1.7,3.7-1.4,5.8c1,4.9,7.3,6.6,12.3,5.9
		c8.7-1.2,21.5-5.2,28.6,1.9c3.6,3.6,5.4,8.6,6.6,13.6c1,3.9,1.8,8.2,4.9,10.9c3,2.7,7.4,3,10.9,4.9
		C342.4,395.4,344.3,398.6,344,401.1z"/>
</g>
<g class="st11">
	<circle cx="322.8" cy="373.2" r="16.7"/>
</g>
<circle class="st6" cx="322.8" cy="373.7" r="16.7"/>
<circle class="st17" cx="322.8" cy="373.7" r="10.9"/>
<circle class="st6" cx="322.8" cy="373.7" r="3.3"/>
<rect x="332.2" y="319.3" transform="matrix(0.1917 -0.9815 0.9815 0.1917 -51.2023 589.7308)" class="st21" width="0.5" height="13.4"/>
<path class="st22" d="M226.8,554.5l3.2-1.5c3.2-1.5,6.9-0.2,8.5,3l11.7,24.3c1.5,3.2,0.2,6.9-3,8.5l-3.2,1.5c-3.2,1.5-6.9,0.2-8.5-3
	l-11.7-24.3C222.3,559.8,223.6,556,226.8,554.5z"/>
<path class="st18" d="M222.4,556.6l12-5.8c0.7-0.3,1.6,0,1.9,0.7l15.9,33.1c0.3,0.7,0,1.6-0.7,1.9l-12,5.8c-0.7,0.3-1.6,0-1.9-0.7
	l-15.9-33.1C221.3,557.8,221.7,556.9,222.4,556.6z"/>
<path class="st6" d="M223.8,555.9l12.1-5.8c0.8-0.4,1.8-0.1,2.2,0.8l15.8,32.7c0.4,0.8,0.1,1.8-0.8,2.2l-12.1,5.8
	c-0.8,0.4-1.8,0.1-2.2-0.8l-15.8-32.7C222.7,557.2,223,556.3,223.8,555.9z"/>
<rect x="231.3" y="554" transform="matrix(0.9008 -0.4343 0.4343 0.9008 -223.5653 159.6751)" class="st20" width="12.6" height="30.1"/>
<ellipse transform="matrix(0.9008 -0.4343 0.4343 0.9008 -229.8967 164.868)" class="st20" cx="245.8" cy="585.5" rx="1.4" ry="1.9"/>
<g class="st11">
	<path d="M333.8,557.3c6.7,0.1,13.4,1.4,19.6,3.9c10,4.1,20.6,0,20.6,0S343.8,552.4,333.8,557.3z"/>
</g>
<path class="st23" d="M678,737.6c0,0,6.2,8.1-2.9,20.4s-16.6,22.6-13.5,30.3c0,0,13.7-22.8,24.9-23.1S690.3,751.3,678,737.6z"/>
<path class="st5" d="M678,737.6c0.5,0.8,1,1.6,1.3,2.5c10.9,12.8,16.7,24.7,6.2,25c-9.8,0.3-21.5,17.7-24.2,22.1
	c0.1,0.3,0.2,0.7,0.3,1c0,0,13.7-22.8,24.9-23.1S690.3,751.3,678,737.6z"/>
<path class="st24" d="M689.5,748c0,2.9-0.3,5.2-0.7,5.2s-0.7-2.3-0.7-5.2s0.4-1.5,0.8-1.5S689.5,745.1,689.5,748z"/>
<path class="st24" d="M693.5,751.4c-2.5,1.4-4.7,2.2-4.9,1.8s1.7-1.7,4.2-3.1s1.5-0.4,1.7,0S696,750,693.5,751.4z"/>
<path class="st23" d="M645.1,737.6c0,0-6.2,8.1,2.9,20.4s16.6,22.6,13.5,30.3c0,0-13.7-22.8-24.9-23.1S632.9,751.3,645.1,737.6z"/>
<path class="st5" d="M645.1,737.6c-0.5,0.8-1,1.6-1.3,2.5c-10.9,12.8-16.7,24.7-6.2,25c9.8,0.3,21.4,17.7,24.2,22.1
	c-0.1,0.3-0.2,0.7-0.3,1c0,0-13.7-22.8-24.9-23.1S632.9,751.3,645.1,737.6z"/>
<path class="st24" d="M633.6,748c0,2.9,0.3,5.2,0.7,5.2s0.7-2.3,0.7-5.2s-0.4-1.5-0.8-1.5S633.6,745.1,633.6,748z"/>
<path class="st24" d="M629.6,751.4c2.5,1.4,4.7,2.2,4.9,1.8s-1.7-1.7-4.2-3.1s-1.5-0.4-1.7,0S627.1,750,629.6,751.4z"/>
<path class="st25" d="M635.6,787.3c0,0,17.4-0.5,22.6-4.3s26.7-8.2,28-2.2s26.1,29.8,6.5,29.9s-45.6-3.1-50.8-6.2
	S635.6,787.3,635.6,787.3z"/>
<path class="st26" d="M693.1,808.6c-19.6,0.2-45.6-3-50.8-6.2c-4-2.4-5.6-11.1-6.1-15.1h-0.6c0,0,1.1,14,6.3,17.2s31.2,6.4,50.8,6.2
	c5.7,0,7.6-2.1,7.5-5C699.5,807.5,697.3,808.6,693.1,808.6z"/>
<path class="st23" d="M602,800c1.4-1.2,2.5-2.8,3-4.6c0.4-1.8-0.4-4-2.1-4.7c-2-0.8-4,0.6-5.6,2s-3.4,2.9-5.5,2.6
	c2.2-2,3.1-4.9,2.6-7.8c-0.1-0.6-0.3-1.1-0.7-1.6c-1.1-1.2-3-0.7-4.3,0.3c-4.1,2.9-5.3,8.5-5.3,13.5c-0.4-1.8-0.1-3.7-0.1-5.6
	s-0.5-3.9-2.1-4.9c-1-0.5-2.1-0.8-3.2-0.8c-1.8-0.1-3.9,0.1-5.2,1.5c-1.6,1.7-1.2,4.5,0.2,6.3s3.4,3,5.3,4.3
	c1.5,0.9,2.8,2.2,3.8,3.7c0.1,0.2,0.2,0.4,0.3,0.7h11.6C597.5,803.7,599.9,802,602,800z"/>
<path class="st27" d="M523.5,793.5c0,0-11.1-37.7,2.1-65.5c5.6-11.6,7.3-24.7,4.8-37.4c-1.2-6-3-11.9-5.3-17.5"/>
<path class="st6" d="M533.4,655.5c0,4.6-8.4,18-8.4,18s-8.4-13.4-8.4-18c0.2-4.6,4-8.2,8.7-8.1C529.7,647.6,533.2,651.1,533.4,655.5
	z"/>
<path class="st6" d="M547.1,681.2c-2.5,3.9-16.8,10.6-16.8,10.6s0.3-15.8,2.8-19.7c2.5-3.9,7.7-5,11.6-2.5
	C548.6,672.1,549.7,677.3,547.1,681.2z"/>
<path class="st6" d="M546.5,724.9c-4.1,2.1-19.9,0.7-19.9,0.7s8.2-13.5,12.3-15.6c4.1-2.1,9.2-0.4,11.2,3.7S550.7,722.8,546.5,724.9
	L546.5,724.9L546.5,724.9z"/>
<path class="st6" d="M538.6,757.9c-3.7,2.8-19.5,4-19.5,4s5.8-14.7,9.5-17.5c3.7-2.8,9-2,11.7,1.7S542.4,755.2,538.6,757.9
	L538.6,757.9L538.6,757.9z"/>
<path class="st6" d="M512.7,692.6c3.3,3.2,18.8,6.6,18.8,6.6s-3.8-15.3-7.1-18.6c-3.3-3.3-8.6-3.3-11.8,0s-3.3,8.6,0,11.8
	C512.6,692.5,512.7,692.6,512.7,692.6L512.7,692.6z"/>
<path class="st6" d="M504,731.4c4.1,2.1,19.9,0.7,19.9,0.7s-8.2-13.5-12.3-15.6c-4.1-2.1-9.2-0.4-11.3,3.7
	C498.2,724.3,499.8,729.4,504,731.4L504,731.4L504,731.4z"/>
<path class="st6" d="M500.6,770.2c3.7,2.8,19.5,4,19.5,4s-5.8-14.7-9.5-17.5c-3.7-2.8-9-2-11.7,1.7
	C496.1,762.2,496.9,767.4,500.6,770.2L500.6,770.2L500.6,770.2z"/>
<path class="st23" d="M533.4,655.5c0,4.6-8.4,18-8.4,18s-8.4-13.4-8.4-18c0.2-4.6,4-8.2,8.7-8.1
	C529.7,647.6,533.2,651.1,533.4,655.5z"/>
<path class="st23" d="M547.1,681.2c-2.5,3.9-16.8,10.6-16.8,10.6s0.3-15.8,2.8-19.7c2.5-3.9,7.7-5,11.6-2.5
	C548.6,672.1,549.7,677.3,547.1,681.2z"/>
<path class="st23" d="M546.5,724.9c-4.1,2.1-19.9,0.7-19.9,0.7s8.2-13.5,12.3-15.6c4.1-2.1,9.2-0.4,11.2,3.7
	S550.7,722.8,546.5,724.9L546.5,724.9L546.5,724.9z"/>
<path class="st23" d="M538.6,757.9c-3.7,2.8-19.5,4-19.5,4s5.8-14.7,9.5-17.5c3.7-2.8,9-2,11.7,1.7S542.4,755.2,538.6,757.9
	L538.6,757.9L538.6,757.9z"/>
<path class="st23" d="M512.7,692.6c3.3,3.2,18.8,6.6,18.8,6.6s-3.8-15.3-7.1-18.6c-3.3-3.3-8.6-3.3-11.8,0s-3.3,8.6,0,11.8
	C512.6,692.5,512.7,692.6,512.7,692.6L512.7,692.6z"/>
<path class="st23" d="M504,731.4c4.1,2.1,19.9,0.7,19.9,0.7s-8.2-13.5-12.3-15.6c-4.1-2.1-9.2-0.4-11.3,3.7
	C498.2,724.3,499.8,729.4,504,731.4L504,731.4L504,731.4z"/>
<path class="st23" d="M500.6,770.2c3.7,2.8,19.5,4,19.5,4s-5.8-14.7-9.5-17.5c-3.7-2.8-9-2-11.7,1.7
	C496.1,762.2,496.9,767.4,500.6,770.2L500.6,770.2L500.6,770.2z"/>
<path class="st25" d="M497.2,791.2c0,0,13.5-2.7,17.1-6.3s19.8-9.8,21.7-5.4s24.4,19.7,9,22.4s-36.1,3.6-40.6,1.8
	S497.2,791.2,497.2,791.2z"/>
<path class="st26" d="M545,800.2c-15.3,2.7-36.1,3.6-40.6,1.8c-3.4-1.4-5.8-7.9-6.8-11l-0.5,0.1c0,0,2.7,10.8,7.2,12.5
	s25.3,0.9,40.6-1.8c4.4-0.8,5.7-2.6,5.2-4.9C549.9,798.5,548.4,799.7,545,800.2z"/>
</svg>
