<?xml version="1.0" encoding="utf-8"?>
<!-- Generator: Adobe Illustrator 26.0.1, SVG Export Plug-In . SVG Version: 6.00 Build 0)  -->
<svg version="1.1" id="Layer_1" xmlns="http://www.w3.org/2000/svg" xmlns:xlink="http://www.w3.org/1999/xlink" x="0px" y="0px"
	 viewBox="0 0 685.7 428.5" style="enable-background:new 0 0 685.7 428.5;" xml:space="preserve">
<style type="text/css">
	.st0{fill:#DAE7FF;}
	.st1{fill:#3F3D56;}
	.st2{fill:#74A67E;}
	.st3{fill:#4B49AC;}
	.st4{opacity:0.2;enable-background:new    ;}
	.st5{fill:#2F2E41;}
	.st6{fill:#FFB6B6;}
	.st7{opacity:0.1;enable-background:new    ;}
	.st8{fill:#6C63FF;}
</style>
<path class="st0" d="M288,428.5H64c-6.4,0-11.6-5.2-11.6-11.6V11.6C52.4,5.2,57.6,0,64,0H288c6.4,0,11.6,5.2,11.6,11.6v405.3
	C299.6,423.3,294.4,428.5,288,428.5z"/>
<path class="st0" d="M632.7,426.4H432.4c-10.1,0-18.3-8.2-18.3-18.3V307.7c0-8.4,6.8-15.2,15.2-15.2h203.4
	c10.1,0,18.3,8.2,18.3,18.3v97.4C651,418.2,642.8,426.4,632.7,426.4z"/>
<path class="st1" d="M0,427.1c0,0.7,0.5,1.2,1.2,1.2h683.3c0.7,0,1.2-0.5,1.2-1.2c0-0.7-0.5-1.2-1.2-1.2H1.2
	C0.5,425.9,0,426.5,0,427.1z"/>
<path class="st1" d="M283.5,428H69.9c-8.5,0-15.5-6.9-15.5-15.5V15.5C54.4,6.9,61.4,0,69.9,0h213.6C292,0,299,6.9,299,15.5v397.1
	C299,421.1,292,428,283.5,428z M69.9,2c-7.4,0-13.5,6-13.5,13.5v397.1c0,7.4,6,13.5,13.5,13.5h213.6c7.4,0,13.5-6,13.5-13.5V15.5
	C297,8,290.9,2,283.5,2H69.9z"/>
<g>
	<path class="st2" d="M666.5,201.9c-0.8-1.4-4.5,0.1-5.2-1.2c-0.7-1.3,2.7-3.2,4.7-7.7c0.3-0.8,2.6-5.9,0.9-7.5
		c-3.1-3-17.2,9.3-22.2,5.3c-1.1-0.9-1.8-2.6-5.1-5.5c-1.3-1.1-2.1-1.7-2.9-1.5c-1.1,0.3-1.2,1.7-2.3,4.6c-1.7,4.3-2.8,4-3.8,7.4
		c-0.8,2.5-0.6,4-1.5,4.3c-1.3,0.4-2.4-2.3-4-2c-1.6,0.2-2.6,3.4-2.9,5.7c-0.6,4.4,1,7.3,1.9,10.4c1,3.3,1.6,8.4-0.7,15.5
		l-22.3,62.8c4.9-12.9,19.2-48.2,25.1-61.3c1.7-3.8,3.6-7.6,7.6-9.1c3.8-1.5,8.9-0.6,15.6-2.2c0.8-0.2,2.9-0.7,3.2-2
		c0.2-1-1-1.6-0.8-2.6c0.3-1.3,2.7-1.3,5.8-2.8c2.1-1.1,3.5-2.3,4.6-3.4C662.5,208.7,667.7,203.8,666.5,201.9L666.5,201.9z"/>
	<path class="st2" d="M578.9,234.9c-0.9,0-1.2,2.2-2.1,2.2c-0.8,0-0.8-2.3-2.4-4.5c-0.3-0.4-2.2-3-3.4-2.6
		c-2.4,0.7-0.4,11.1-3.8,12.4c-0.7,0.3-1.8,0.1-4.2,0.9c-0.9,0.3-1.4,0.6-1.5,1c-0.2,0.6,0.5,1.1,1.6,2.5c1.6,2.1,1.2,2.5,2.6,4
		c1,1.1,1.8,1.4,1.7,2c-0.2,0.7-1.8,0.5-2.2,1.4c-0.3,0.9,0.9,2.3,2,3.1c2,1.6,3.9,1.6,5.6,2c1.9,0.5,4.6,1.7,7.4,4.8l24.4,29
		c-4.9-6.1-18.1-23.3-22.8-30c-1.4-1.9-2.7-4-2.3-6.3c0.4-2.3,2.3-4.6,3.4-8.3c0.1-0.4,0.5-1.6-0.1-2.1c-0.4-0.4-1.1,0-1.5-0.3
		c-0.6-0.5,0.1-1.7,0.3-3.7c0.1-1.4-0.1-2.4-0.3-3.3C581.1,238.9,580.1,234.9,578.9,234.9L578.9,234.9L578.9,234.9z"/>
	<path class="st2" d="M597.7,239.2l-0.6-5.1l0.3-0.4c1.2-1.8,1.8-3.5,1.8-5.2c0-0.3,0-0.5,0-0.8c0-1.1-0.1-2.4,0.6-3.9
		c0.4-0.9,1.5-2.8,3.1-2.6c0.4,0.1,0.8,0.3,1,0.5c0-0.1,0.1-0.1,0.1-0.2c0.5-0.8,0.9-1.1,1.3-1.4c0.3-0.2,0.6-0.5,1.1-1.1
		c0.2-0.3,0.4-0.5,0.5-0.7c0.4-0.6,1-1.3,1.9-1.3c1,0,1.6,0.9,1.9,1.5c0.6,1,0.9,1.7,1.1,2.2c0.1,0.2,0.1,0.4,0.2,0.4
		c0.3,0.5,3,0,4.1-0.1c2.3-0.4,4.3-0.7,5.1,0.7c0.6,1,0.2,2.4-1.3,4.2c-0.5,0.6-1,1-1.4,1.3c0.4,0.2,0.7,0.5,0.8,1.1l0,0
		c0.3,1.2-0.7,2.5-3.1,3.7c-0.6,0.3-1.4,0.7-2.5,0.9c-0.5,0.1-1,0.1-1.4,0.1c0,0.2-0.1,0.5-0.2,0.8c-0.4,0.8-1.3,1.1-2.6,1
		c-1.4-0.1-2.6-0.4-3.7-0.6c-0.9-0.2-1.7-0.4-2.3-0.3c-1.2,0.1-2,1-3.1,2.2L597.7,239.2L597.7,239.2z"/>
	<path class="st2" d="M600.3,209l-4.8,1.8l-0.4-0.2c-2-0.7-3.9-0.9-5.5-0.5c-0.3,0.1-0.5,0.1-0.8,0.2c-1,0.3-2.3,0.7-3.9,0.4
		c-0.9-0.2-3.1-0.7-3.3-2.3c-0.1-0.4,0.1-0.8,0.2-1.1c-0.1,0-0.1,0-0.2-0.1c-0.9-0.3-1.3-0.6-1.7-0.9c-0.3-0.2-0.6-0.5-1.3-0.8
		c-0.3-0.1-0.6-0.2-0.8-0.3c-0.7-0.3-1.5-0.6-1.7-1.5c-0.2-1,0.5-1.8,0.9-2.2c0.8-0.9,1.4-1.3,1.9-1.6c0.2-0.1,0.3-0.2,0.4-0.3
		c0.4-0.4-0.7-2.9-1.2-3.9c-0.9-2.1-1.8-4-0.6-5.1c0.9-0.8,2.3-0.8,4.4,0.2c0.6,0.3,1.2,0.7,1.6,1c0.1-0.4,0.4-0.8,0.8-1.1l0,0
		c1.1-0.6,2.6,0.1,4.3,2.1c0.4,0.5,1,1.2,1.5,2.2c0.2,0.5,0.4,0.9,0.5,1.3c0.2-0.1,0.5-0.1,0.8,0c0.9,0.2,1.4,1,1.7,2.3
		c0.3,1.4,0.3,2.6,0.4,3.7c0,0.9,0.1,1.8,0.3,2.3c0.4,1.1,1.5,1.7,2.9,2.4L600.3,209L600.3,209L600.3,209z"/>
	<path class="st2" d="M597.7,194.1l-0.6-5.1l0.3-0.4c1.2-1.8,1.8-3.5,1.8-5.2c0-0.3,0-0.5,0-0.8c0-1.1-0.1-2.4,0.6-3.9
		c0.4-0.9,1.5-2.8,3.1-2.6c0.4,0.1,0.8,0.3,1,0.5c0-0.1,0.1-0.1,0.1-0.2c0.5-0.8,0.9-1.1,1.3-1.4c0.3-0.2,0.6-0.5,1.1-1.1
		c0.2-0.3,0.4-0.5,0.5-0.7c0.4-0.6,1-1.3,1.9-1.3c1,0,1.6,0.9,1.9,1.5c0.6,1,0.9,1.7,1.1,2.2c0.1,0.2,0.1,0.4,0.2,0.4
		c0.3,0.5,3,0,4.1-0.1c2.3-0.4,4.3-0.7,5.1,0.7c0.6,1,0.2,2.4-1.3,4.2c-0.5,0.6-1,1-1.4,1.3c0.4,0.2,0.7,0.5,0.8,1.1l0,0
		c0.3,1.2-0.7,2.5-3.1,3.7c-0.6,0.3-1.4,0.7-2.5,0.9c-0.5,0.1-1,0.1-1.4,0.1c0,0.2-0.1,0.5-0.2,0.8c-0.4,0.8-1.3,1.1-2.6,1
		c-1.4-0.1-2.6-0.4-3.7-0.6c-0.9-0.2-1.7-0.4-2.3-0.3c-1.2,0.1-2,1-3.1,2.2L597.7,194.1L597.7,194.1z"/>
	<path class="st2" d="M602.9,292.4l-1.1-0.7l-0.3-1.2l0.3,1.2l-1.2,0.1c0-0.1-0.1-0.4-0.2-0.8c-0.6-2.3-2.2-9.2-3.7-20
		c-1-7.6-1.5-15.4-1.7-23.2c-0.1-7.8,0.3-13.7,0.6-18.5c0.2-3.6,0.5-7,0.8-10.3c0.7-8.9,1.4-17.3,0.9-26.5c-0.1-2.1-0.3-6.4-2.9-11
		c-1.5-2.7-3.5-5-6-7l1.6-2c2.8,2.2,5,4.8,6.6,7.8c2.8,5.1,3,9.8,3.2,12.1c0.5,9.4-0.2,17.9-0.9,26.9c-0.3,3.3-0.5,6.7-0.8,10.3
		c-0.3,4.7-0.7,10.6-0.5,18.3c0.1,7.7,0.7,15.4,1.6,22.9c1.4,10.7,3.1,17.5,3.6,19.7C603.1,291.7,603.2,292,602.9,292.4L602.9,292.4
		z"/>
	<path class="st2" d="M583.8,178.6c-0.1,0-0.2,0-0.3,0c-2.1-0.1-4.1-1.4-5.9-3.8c-0.8-1.1-1.3-2.4-2.1-5c-0.1-0.4-0.8-2.4-1.2-5.2
		c-0.3-1.8-0.2-2.6,0.1-3.2c0.4-0.7,1-1.3,1.8-1.6c0-0.2,0-0.5,0.1-0.7c0.4-1,1.6-0.9,2.2-0.8c0.3,0,0.7,0.1,1.1,0.1
		c0.7,0,1-0.2,1.5-0.5c0.5-0.3,1.2-0.6,2.1-0.8c1.9-0.4,3.4,0.1,3.9,0.3c2.7,0.9,4,3,5.6,5.4c0.3,0.5,1.4,2.3,2.1,4.7
		c0.5,1.8,0.4,2.5,0.3,3.1c-0.3,1.2-1,1.9-2.9,3.4c-1.9,1.6-2.9,2.4-3.7,2.9C586.7,177.9,585.4,178.6,583.8,178.6L583.8,178.6
		L583.8,178.6z"/>
</g>
<rect x="53.9" y="176.5" class="st3" width="245.7" height="63.8"/>
<rect x="146.4" y="1" class="st3" width="63.8" height="426"/>
<path class="st4" d="M212.6,235.5c0.5-1.8,0.7-3.6,0.8-5.5l79.8-72.7l-68.6-33.5l-30.2,80.6c-2.1-0.5-4.2-0.9-6.5-0.9
	c-1.2,0-2.3,0.1-3.5,0.3l-30-80l-68.6,33.5l76.7,69.8c0,0.6-0.1,1.3-0.1,2c0,2.2,0.3,4.3,0.8,6.4c-47,14.7-66.2,59.1-66.2,59.1
	l59,47.9c-3.5-35.2,18-71.3,29.6-87.9c0.8,0.1,1.5,0.1,2.3,0.1s1.5,0,2.3-0.1c11.6,16.6,33.1,52.7,29.6,87.9l59-47.9
	C278.8,294.6,259.6,250.2,212.6,235.5L212.6,235.5z"/>
<path class="st3" d="M221.2,325.2c-0.7,0-1.4-0.1-2-0.5c-1.7-0.8-2.7-2.4-2.7-4.2c-0.5-30.9-18.1-61.2-28.5-76.5
	c-0.7-1-1.9-1.6-3.2-1.6h0c-1.4,0-2.6,0.6-3.3,1.6c-10.4,15.3-28,45.6-28.5,76.5c0,1.8-1.1,3.4-2.7,4.2c-1.7,0.8-3.6,0.5-5-0.6
	l-49.1-39.8c-1.8-1.4-2.3-3.9-1.2-5.9c5-9.6,24.1-41.7,61.5-55c1.7-0.6,2.7-2.3,2.5-4c-0.1-1-0.2-2-0.2-3c0-1.2-0.4-2.2-1.2-2.9
	l-70.5-64.2c-1.2-1.1-1.7-2.6-1.5-4.2c0.2-1.6,1.2-2.9,2.6-3.6l58.7-28.7c1.2-0.6,2.6-0.6,3.9-0.1c1.2,0.5,2.2,1.5,2.7,2.8
	l27.2,72.6c0.6,1.5,2,2.5,3.6,2.4c1.2,0,2.5,0,3.7,0.2c1.8,0.2,3.4-0.8,4-2.4l27.3-72.9c0.5-1.3,1.5-2.3,2.7-2.8
	c1.2-0.5,2.7-0.4,3.9,0.1l58.7,28.7c1.4,0.7,2.4,2,2.6,3.6c0.2,1.6-0.3,3.1-1.5,4.2l-73.9,67.3c-0.7,0.6-1.1,1.5-1.2,2.4
	c0,0.2,0,0.4-0.1,0.6l0,0c-0.2,1.7,0.8,3.3,2.5,3.9c37.5,13.2,56.6,45.4,61.5,55c1,2,0.5,4.5-1.2,5.9l-49.1,39.8
	C223.4,324.8,222.3,325.2,221.2,325.2L221.2,325.2z"/>
<path class="st1" d="M635.7,428.4H429.6c-8.5,0-15.5-6.9-15.5-15.5V308.1c0-8.5,6.9-15.5,15.5-15.5h206.1c8.5,0,15.5,6.9,15.5,15.5
	v104.8C651.1,421.5,644.2,428.4,635.7,428.4z M429.6,294.6c-7.4,0-13.5,6-13.5,13.5v104.8c0,7.4,6,13.5,13.5,13.5h206.1
	c7.4,0,13.5-6,13.5-13.5V308.1c0-7.4-6-13.5-13.5-13.5H429.6z"/>
<rect x="518.1" y="292.7" class="st3" width="35.2" height="135.5"/>
<rect x="415.1" y="343.8" class="st3" width="235" height="35.2"/>
<path class="st4" d="M525.8,383.3c1,0.2,2,0.4,3,0.4l40.1,44l18.5-37.8l-44.5-16.7c0.3-1.1,0.5-2.3,0.5-3.6c0-0.7-0.1-1.3-0.1-1.9
	l44.2-16.6l-18.5-37.8l-38.5,42.3c-0.4,0-0.7-0.1-1.1-0.1c-1.2,0-2.4,0.2-3.5,0.5c-8.1-25.9-32.6-36.5-32.6-36.5l-26.4,32.6
	c19.4-1.9,39.3,9.9,48.5,16.3c0,0.4-0.1,0.8-0.1,1.3s0,0.9,0.1,1.3c-9.2,6.4-29,18.3-48.5,16.3l26.4,32.6
	C493.2,419.8,517.6,409.2,525.8,383.3L525.8,383.3z"/>
<path class="st3" d="M570.3,421.7c-0.8,0-1.6-0.3-2.1-0.9L531.1,380c-0.3-0.3-0.8-0.5-1.3-0.6l-0.2,0c-0.9-0.1-1.7,0.4-2,1.2
	c-7.3,20.8-25.2,31.4-30.5,34.1c-1.2,0.6-2.7,0.3-3.5-0.7l-21.9-27.1c-0.7-0.9-0.8-2-0.4-3c0.5-1,1.4-1.6,2.5-1.6
	c17-0.3,33.6-9.9,42.1-15.7c0.5-0.3,0.8-0.9,0.8-1.6c0-0.7-0.3-1.3-0.8-1.6c-8.4-5.8-25.1-15.4-42.1-15.7c-1.1,0-2-0.6-2.5-1.6
	c-0.5-1-0.3-2.2,0.4-3l21.9-27.1c0.9-1,2.3-1.4,3.5-0.7c5.3,2.7,23.1,13.3,30.5,34.1c0.3,0.8,1.1,1.3,1.9,1.2
	c0.9-0.1,1.8-0.1,2.6-0.1l36-39.6c0.6-0.7,1.6-1,2.5-0.9c0.9,0.1,1.7,0.7,2.2,1.6l15.8,32.4c0.4,0.7,0.4,1.6,0.1,2.3
	c-0.3,0.7-0.9,1.3-1.6,1.6l-40.1,15c-0.7,0.3-1.2,1-1.2,1.8l0,0.3c0,0.6,0,1.3-0.1,1.9c-0.1,0.8,0.4,1.6,1.2,1.9l40.2,15.1
	c0.8,0.3,1.4,0.9,1.6,1.6c0.3,0.7,0.3,1.6-0.1,2.3l-15.8,32.4c-0.4,0.9-1.2,1.4-2.2,1.6C570.6,421.7,570.5,421.7,570.3,421.7z"/>
<g>
	<path class="st5" d="M383.7,171.7h-32.2v-10.6c0-17.8,14.4-32.2,32.2-32.2h0V171.7L383.7,171.7L383.7,171.7z"/>
	<polygon class="st6" points="376.5,151.9 382.1,176.8 349.6,171.4 362.8,147.8 	"/>
	<polygon class="st7" points="376.5,151.9 382.1,176.8 349.6,171.4 362.8,147.8 	"/>
	<rect x="345.4" y="205.1" class="st6" width="31.1" height="46.1"/>
	<path class="st6" d="M396.8,288.9l-6.8,36.7c0,0,4.4,25.5-8.7,51.7l-8.7,26.8l-13.1-1.9c0,0,8.1-19.9,8.1-28.6s1.9-42.3,1.9-42.3
		l-0.9-38.4L396.8,288.9L396.8,288.9z"/>
	<path class="st5" d="M357.6,401.5c0,0,14.9-5.6,16.2,2.5l-0.6,3.7c0,0,5.6,16.8-2.5,18.1s-15.6,3.1-16.2-0.6s-0.6-8.4,0.9-11.7
		S357.6,401.5,357.6,401.5z"/>
	<path class="st6" d="M349.7,283.2l-3.6,37.2c0,0-11.3,23.3-6,52.1l0.9,28.1l13.1,1.8c0,0-2.2-21.4,0.2-29.8
		c2.4-8.4,10-41.2,10-41.2l11.6-36.6L349.7,283.2L349.7,283.2z"/>
	<path class="st5" d="M356,402.3c0,0-12.8-9.5-16.2-2.1l-0.4,3.8c0,0-9.9,18.6-2.5,22s13.9,3.3,15.5-0.1s2.9-7.9,2.3-11.5
		S356,402.3,356,402.3L356,402.3z"/>
	<path class="st5" d="M388.7,229.7l26.8,56.7c0,0-53.9,27.1-85.6,27.1l15.8-83.7L388.7,229.7L388.7,229.7z"/>
	<path class="st8" d="M364.7,163.4l15.6,2.5l-1.2,39.2l17.4,34.9l-22.4,11.2c0,0-17.4-33-20.5-53.5s-1.2-35.5-1.2-35.5L364.7,163.4
		L364.7,163.4z"/>
	<path class="st8" d="M352.9,164.7l-15.6,2.5l1.2,39.2l-3.7,36.1l8.7,10c0,0,17.4-33,20.5-53.5s1.2-35.5,1.2-35.5L352.9,164.7
		L352.9,164.7z"/>
	<path class="st8" d="M376.9,166.8l3.4-0.9c0,0,12.1-1.6,14,3.4c1.9,5,1.2,34.2,1.2,34.2s3.2,35.9-9.3,36.3s-10-29.5-10-29.5
		L376.9,166.8z"/>
	<circle class="st6" cx="371.1" cy="142.6" r="16.1"/>
	<path class="st6" d="M366.1,164.8c3.5-0.9,7.4,2.8,8.8,8.2c0.6,2.2,0.6,4.4,0.2,6.6l1.5,6.2l0.1,0l11.7,27.6
		c2.7,6.4,2.4,13.8-1,19.8c-2.1,3.6-4.8,6-8,3.5c-5.3-4.1-8.7-27.5-10.3-41l-3.6-13.7c-1.5-1.7-2.5-3.7-3-5.9
		C360.9,170.8,362.6,165.7,366.1,164.8L366.1,164.8z"/>
	<path class="st8" d="M351,166.8l-3.4-0.9c0,0-12.1-1.6-14,3.4s-1.2,34.2-1.2,34.2s-3.2,35.9,9.3,36.3c12.5,0.4,10-29.5,10-29.5
		L351,166.8z"/>
	<path class="st6" d="M361.8,164.8c-3.5-0.9-7.4,2.8-8.8,8.2c-0.6,2.2-0.6,4.4-0.2,6.6l-1.5,6.2l-0.1,0l-11.7,27.6
		c-2.7,6.4-2.4,13.8,1,19.8c2.1,3.6,4.8,6,8,3.5c5.3-4.1,8.7-27.5,10.3-41l3.6-13.7c1.5-1.7,2.5-3.7,3-5.9
		C366.9,170.8,365.3,165.7,361.8,164.8L361.8,164.8z"/>
	<path class="st5" d="M340.3,155.6c0.8-2.5,2.4-4.7,3.2-7.2c1-3.3,3,4.1,3.2,0.6c0.4-6.6,10.5-23.6,16.2-26.9
		c5.8-3.3,9.1-2.3,14.9,0.8c0,0,2.8,0.2,6.4,1.9s6.7,4.6,8.1,8.3c1.1,2.9,1,6.2,1.3,9.3c1,8.7,5.9,16.9,4.8,25.6
		c-0.3,2.7-1.4,5.5-3.6,7.1c-2.2,1.6-5.8,1.4-7.2-0.9c-0.5-0.8-0.7-1.7-1.1-2.5c-0.4-0.8-1.2-1.6-2.1-1.6c-1.4,0-2.1,1.9-1.6,3.2
		s1.8,2.1,3.1,2.7c-2.9,1.3-6.5,0.9-9-1c-2.5-1.9-3.9-5.3-3.4-8.4c0.7-4.4,7.1-3.5,7.9-7.9c0.6-3.2,2.5-8.6,2-11.8
		c-0.5-3.2-3.1,0.7-0.4-1.2c-2.9,1.4-9.2-8.3-12.3-9.4c-3.1-1.1-5.7-3.4-7.1-6.4c-3.3,4.7-6.1,3.5-7.3,9.1
		c-1.2,5.6-0.1,18.4,4.7,21.6c-1.9,1.3-3.5,3.2-4.4,5.3c-0.5,1.2-0.8,2.6-1.7,3.6c-1.6,1.9-4.6,2.1-7,1.2c-3-1-5.5-3.2-6.9-6
		S339.3,158.6,340.3,155.6L340.3,155.6z"/>
</g>
</svg>
